<svg version="1.1" xmlns="http://www.w3.org/2000/svg" viewBox="0 0 431.3997195097046 405.40625" width="431.3997195097046" height="405.40625">
  <!-- svg-source:excalidraw -->
  
  <defs>
    <style class="style-fonts">
      @font-face {
        font-family: "Virgil";
        src: url("https://excalidraw.com/Virgil.woff2");
      }
      @font-face {
        font-family: "Cascadia";
        src: url("https://excalidraw.com/Cascadia.woff2");
      }
    </style>
  </defs>
  <rect x="0" y="0" width="431.3997195097046" height="405.40625" fill="#ffffff"/><g transform="translate(222.50953719101256 281.5) rotate(0 -6.25 -35.5)" stroke="none"><path fill="#000000" d="M -1.36,0 Q -1.36,0 -1.67,-0.27 -1.98,-0.55 -2.33,-1.68 -2.67,-2.80 -2.97,-4.05 -3.27,-5.31 -3.67,-6.58 -4.07,-7.86 -4.44,-9.53 -4.80,-11.21 -5.25,-13.15 -5.69,-15.09 -6.19,-17.37 -6.68,-19.65 -7.05,-22.12 -7.42,-24.59 -8.00,-27.26 -8.58,-29.92 -9.14,-33.30 -9.69,-36.68 -10.21,-40.27 -10.74,-43.86 -11.24,-47.39 -11.75,-50.92 -12.25,-55.48 -12.76,-60.04 -12.98,-62.86 -13.19,-65.69 -13.42,-67.21 -13.64,-68.74 -13.57,-70.30 -13.49,-71.86 -13.53,-72.07 -13.57,-72.28 -13.53,-72.49 -13.50,-72.70 -13.40,-72.89 -13.30,-73.08 -13.15,-73.23 -13.00,-73.37 -12.81,-73.46 -12.61,-73.56 -12.40,-73.58 -12.19,-73.61 -11.98,-73.56 -11.78,-73.52 -11.59,-73.41 -11.41,-73.30 -11.27,-73.14 -11.13,-72.98 -11.05,-72.78 -10.97,-72.59 -10.96,-72.37 -10.94,-72.16 -11.00,-71.96 -11.06,-71.75 -11.17,-71.57 -11.29,-71.40 -11.46,-71.27 -11.63,-71.14 -11.83,-71.07 -12.03,-71.00 -12.24,-71.00 -12.45,-71.00 -12.66,-71.06 -12.86,-71.13 -13.03,-71.25 -13.20,-71.38 -13.32,-71.56 -13.44,-71.73 -13.50,-71.94 -13.56,-72.14 -13.55,-72.35 -13.54,-72.56 -13.46,-72.76 -13.38,-72.96 -13.25,-73.12 -13.11,-73.29 -12.93,-73.40 -12.75,-73.51 -12.54,-73.56 -12.33,-73.60 -12.12,-73.58 -11.91,-73.56 -11.72,-73.47 -11.52,-73.39 -11.37,-73.24 -11.21,-73.10 -11.11,-72.91 -11.01,-72.72 -11.01,-72.72 -11.01,-72.72 -9.83,-71.10 -8.66,-69.48 -8.41,-67.78 -8.17,-66.07 -7.95,-63.33 -7.74,-60.59 -7.24,-56.12 -6.75,-51.64 -6.24,-48.11 -5.74,-44.58 -5.23,-41.03 -4.72,-37.48 -4.21,-34.21 -3.71,-30.95 -3.13,-28.12 -2.56,-25.29 -2.24,-22.95 -1.93,-20.62 -1.50,-18.35 -1.06,-16.08 -0.67,-14.08 -0.28,-12.08 -0.03,-10.57 0.21,-9.06 0.58,-7.59 0.95,-6.12 1.12,-4.96 1.28,-3.80 1.63,-2.19 1.98,-0.59 1.67,-0.29 1.36,0 1.34,0.16 1.32,0.32 1.26,0.48 1.20,0.63 1.11,0.76 1.02,0.90 0.89,1.01 0.77,1.12 0.62,1.20 0.48,1.27 0.32,1.31 0.16,1.35 -0.00,1.35 -0.16,1.35 -0.32,1.31 -0.48,1.27 -0.62,1.20 -0.77,1.12 -0.89,1.01 -1.02,0.90 -1.11,0.76 -1.20,0.63 -1.26,0.48 -1.32,0.32 -1.34,0.16 -1.36,-0.00 -1.36,-0.00 L -1.36,0 Z"/></g><g transform="translate(199.50953719101256 219.5) rotate(0 11.5 -12.25)" stroke="none"><path fill="#000000" d="M -1.41,0 Q -1.41,0 -1.63,-1.29 -1.84,-2.58 -1.73,-3.83 -1.61,-5.08 -1.25,-6.43 -0.90,-7.78 -0.49,-9.29 -0.07,-10.81 0.55,-12.43 1.18,-14.05 1.96,-16.26 2.75,-18.47 3.41,-19.93 4.07,-21.38 5.00,-23.15 5.93,-24.92 7.94,-25.37 9.95,-25.82 10.66,-24.90 11.37,-23.99 12.67,-22.59 13.97,-21.20 15.35,-19.22 16.73,-17.24 17.57,-16.11 18.41,-14.99 19.58,-12.60 20.76,-10.20 22.30,-6.23 23.84,-2.26 23.90,-2.05 23.96,-1.85 23.96,-1.64 23.95,-1.43 23.88,-1.23 23.81,-1.03 23.67,-0.86 23.54,-0.70 23.36,-0.58 23.18,-0.47 22.98,-0.42 22.77,-0.36 22.56,-0.38 22.35,-0.40 22.15,-0.48 21.96,-0.57 21.80,-0.71 21.64,-0.85 21.53,-1.03 21.43,-1.22 21.39,-1.43 21.35,-1.64 21.38,-1.85 21.41,-2.06 21.50,-2.25 21.60,-2.44 21.75,-2.59 21.90,-2.74 22.09,-2.83 22.28,-2.93 22.49,-2.96 22.70,-2.99 22.91,-2.95 23.11,-2.91 23.30,-2.80 23.48,-2.70 23.63,-2.54 23.77,-2.38 23.85,-2.19 23.94,-1.99 23.95,-1.78 23.97,-1.57 23.92,-1.36 23.87,-1.15 23.75,-0.97 23.64,-0.80 23.47,-0.66 23.31,-0.53 23.11,-0.46 22.91,-0.38 22.70,-0.38 22.48,-0.37 22.28,-0.43 22.08,-0.50 21.91,-0.62 21.73,-0.74 21.61,-0.92 21.49,-1.09 21.49,-1.09 21.49,-1.09 19.25,-4.73 17.00,-8.36 16.00,-10.42 15.00,-12.48 14.10,-13.71 13.19,-14.93 11.90,-16.78 10.61,-18.64 9.76,-19.63 8.90,-20.63 8.26,-21.90 7.61,-23.17 8.64,-22.94 9.68,-22.70 8.85,-21.12 8.02,-19.54 7.39,-18.25 6.76,-16.95 5.88,-14.72 4.99,-12.49 4.39,-11.09 3.79,-9.70 3.33,-8.19 2.87,-6.68 2.36,-4.63 1.84,-2.58 1.63,-1.29 1.41,0 1.39,0.16 1.37,0.33 1.31,0.49 1.25,0.65 1.15,0.79 1.06,0.93 0.93,1.05 0.80,1.16 0.65,1.24 0.50,1.32 0.33,1.36 0.17,1.40 -0.00,1.40 -0.17,1.40 -0.33,1.36 -0.50,1.32 -0.65,1.24 -0.80,1.16 -0.93,1.05 -1.06,0.93 -1.15,0.79 -1.25,0.65 -1.31,0.49 -1.37,0.33 -1.39,0.16 -1.41,-0.00 -1.41,-0.00 L -1.41,0 Z"/></g><g transform="translate(212.50953719101256 34) rotate(0 28.25 0.75)" stroke="none"><path fill="#000000" d="M 0.29,-1.33 Q 0.29,-1.33 1.64,-1.30 2.98,-1.27 5.34,-1.56 7.70,-1.85 9.22,-1.98 10.74,-2.11 12.11,-2.16 13.47,-2.22 14.77,-2.25 16.07,-2.28 17.61,-2.15 19.14,-2.02 20.78,-1.82 22.41,-1.62 25.20,-1.39 27.99,-1.17 30.23,-1.22 32.47,-1.27 34.63,-1.29 36.79,-1.31 39.79,-1.18 42.78,-1.04 45.43,-0.98 48.08,-0.93 51.53,-0.37 54.98,0.17 55.19,0.20 55.40,0.24 55.58,0.34 55.77,0.44 55.92,0.60 56.06,0.75 56.15,0.95 56.24,1.14 56.26,1.35 56.28,1.56 56.23,1.77 56.18,1.98 56.07,2.16 55.96,2.34 55.80,2.48 55.63,2.61 55.43,2.69 55.24,2.77 55.02,2.77 54.81,2.78 54.61,2.72 54.40,2.67 54.23,2.54 54.05,2.42 53.93,2.25 53.80,2.08 53.73,1.88 53.67,1.68 53.67,1.47 53.67,1.25 53.74,1.05 53.81,0.85 53.94,0.68 54.07,0.52 54.25,0.40 54.43,0.28 54.63,0.23 54.84,0.17 55.05,0.19 55.26,0.20 55.46,0.28 55.65,0.36 55.82,0.50 55.98,0.64 56.08,0.82 56.19,1.01 56.23,1.21 56.28,1.42 56.25,1.63 56.23,1.84 56.14,2.04 56.05,2.23 55.90,2.38 55.75,2.53 55.56,2.63 55.37,2.73 55.16,2.76 54.95,2.79 54.95,2.79 54.95,2.79 51.47,3.27 47.98,3.76 45.27,3.70 42.56,3.64 39.70,3.50 36.84,3.37 34.70,3.39 32.56,3.41 30.08,3.45 27.61,3.49 24.72,3.25 21.83,3.02 20.26,2.81 18.68,2.61 17.40,2.46 16.11,2.32 14.84,2.31 13.56,2.30 12.25,2.30 10.94,2.30 9.54,2.30 8.15,2.30 6.65,2.42 5.15,2.55 3.67,2.48 2.18,2.42 0.94,1.87 -0.29,1.33 -0.45,1.27 -0.60,1.22 -0.74,1.13 -0.88,1.04 -0.99,0.92 -1.10,0.80 -1.18,0.65 -1.26,0.51 -1.30,0.35 -1.35,0.19 -1.35,0.03 -1.35,-0.13 -1.32,-0.29 -1.28,-0.45 -1.21,-0.60 -1.14,-0.74 -1.03,-0.87 -0.92,-1.00 -0.79,-1.09 -0.66,-1.19 -0.50,-1.25 -0.35,-1.31 -0.19,-1.34 -0.03,-1.36 0.13,-1.34 0.29,-1.33 0.29,-1.33 L 0.29,-1.33 Z"/></g><g transform="translate(272.50953719101256 47) rotate(0 7.5 -15)" stroke="none"><path fill="#000000" d="M 0.36,1.47 Q 0.36,1.47 -0.51,1.85 -1.39,2.23 -1.10,2.25 -0.81,2.27 -1.07,2.30 -1.34,2.33 -1.60,2.30 -1.87,2.27 -2.12,2.18 -2.37,2.08 -2.59,1.93 -2.81,1.78 -2.99,1.58 -3.17,1.38 -3.29,1.15 -3.42,0.91 -3.48,0.65 -3.55,0.39 -3.55,0.12 -3.55,-0.13 -3.49,-0.39 -3.42,-0.65 -3.30,-0.89 -3.18,-1.13 -3.00,-1.33 -2.82,-1.53 -2.60,-1.68 -2.38,-1.83 -2.13,-1.93 -1.88,-2.02 -0.41,-3.05 1.06,-4.08 2.52,-4.49 3.99,-4.91 5.46,-5.21 6.92,-5.52 8.80,-6.12 10.68,-6.72 12.14,-7.78 13.60,-8.84 14.76,-10.07 15.92,-11.30 16.26,-12.66 16.60,-14.02 16.15,-15.08 15.70,-16.14 14.20,-16.77 12.70,-17.41 11.19,-17.84 9.67,-18.28 7.97,-18.76 6.27,-19.24 4.66,-19.93 3.04,-20.63 1.04,-22.04 -0.96,-23.45 -2.96,-26.28 -4.96,-29.12 -5.09,-29.29 -5.22,-29.46 -5.28,-29.66 -5.35,-29.87 -5.35,-30.08 -5.35,-30.29 -5.28,-30.49 -5.21,-30.69 -5.08,-30.86 -4.95,-31.03 -4.77,-31.15 -4.59,-31.26 -4.39,-31.32 -4.18,-31.37 -3.97,-31.36 -3.76,-31.35 -3.56,-31.27 -3.36,-31.19 -3.20,-31.05 -3.04,-30.91 -2.93,-30.73 -2.83,-30.54 -2.78,-30.34 -2.74,-30.13 -2.76,-29.92 -2.79,-29.71 -2.88,-29.51 -2.97,-29.32 -3.12,-29.17 -3.26,-29.02 -3.45,-28.92 -3.64,-28.82 -3.85,-28.79 -4.06,-28.75 -4.27,-28.79 -4.48,-28.83 -4.67,-28.93 -4.85,-29.03 -5.00,-29.18 -5.14,-29.34 -5.23,-29.53 -5.32,-29.73 -5.34,-29.94 -5.36,-30.15 -5.31,-30.36 -5.27,-30.56 -5.16,-30.74 -5.04,-30.93 -4.88,-31.06 -4.72,-31.20 -4.52,-31.28 -4.32,-31.35 -4.11,-31.36 -3.90,-31.37 -3.69,-31.31 -3.49,-31.25 -3.31,-31.13 -3.14,-31.01 -3.14,-31.01 -3.14,-31.01 -0.48,-29.38 2.17,-27.75 3.70,-26.60 5.22,-25.45 6.50,-24.85 7.77,-24.25 9.49,-23.71 11.21,-23.17 13.01,-22.56 14.80,-21.95 16.22,-21.20 17.63,-20.46 18.63,-19.49 19.63,-18.53 20.20,-17.25 20.76,-15.97 20.75,-14.38 20.74,-12.80 19.97,-10.65 19.20,-8.50 17.74,-6.90 16.29,-5.30 14.29,-3.76 12.30,-2.22 10.11,-1.42 7.92,-0.63 6.57,-0.37 5.23,-0.10 4.15,0.13 3.06,0.37 1.95,0.54 0.85,0.71 0.01,1.49 -0.81,2.27 -1.07,2.30 -1.34,2.33 -1.60,2.30 -1.87,2.27 -2.12,2.18 -2.37,2.08 -2.59,1.93 -2.81,1.78 -2.99,1.58 -3.17,1.38 -3.29,1.15 -3.42,0.91 -3.48,0.65 -3.55,0.39 -3.55,0.12 -3.55,-0.13 -3.49,-0.39 -3.42,-0.65 -3.30,-0.89 -3.18,-1.13 -3.00,-1.33 -2.82,-1.53 -2.60,-1.68 -2.38,-1.83 -2.13,-1.93 -1.88,-2.02 -1.39,-1.84 -0.90,-1.66 -0.63,-1.57 -0.36,-1.47 -0.18,-1.50 -0.00,-1.52 0.17,-1.50 0.35,-1.48 0.53,-1.41 0.70,-1.35 0.85,-1.24 1.00,-1.14 1.12,-1.00 1.25,-0.86 1.33,-0.70 1.42,-0.54 1.46,-0.36 1.51,-0.18 1.51,-0.00 1.51,0.17 1.46,0.35 1.42,0.53 1.34,0.69 1.25,0.86 1.13,0.99 1.01,1.13 0.86,1.24 0.71,1.34 0.54,1.41 0.36,1.47 0.36,1.47 L 0.36,1.47 Z"/></g><g transform="translate(187.50953719101256 34) rotate(0 -26.75 -3.5)" stroke="none"><path fill="#000000" d="M -0.11,1.53 Q -0.11,1.53 -2.00,1.64 -3.89,1.74 -5.09,1.74 -6.29,1.74 -7.36,1.76 -8.43,1.79 -9.61,1.67 -10.79,1.56 -12.96,1.78 -15.13,2.01 -16.53,2.07 -17.93,2.13 -19.25,2.31 -20.57,2.49 -23.08,2.74 -25.59,3.00 -27.61,3.24 -29.63,3.48 -31.75,3.60 -33.86,3.72 -35.88,3.63 -37.90,3.54 -39.77,3.18 -41.64,2.83 -43.42,1.99 -45.20,1.15 -47.35,-0.26 -49.50,-1.68 -51.38,-3.95 -53.26,-6.21 -53.41,-6.36 -53.56,-6.51 -53.66,-6.70 -53.75,-6.89 -53.78,-7.10 -53.81,-7.32 -53.77,-7.52 -53.73,-7.73 -53.63,-7.92 -53.52,-8.10 -53.37,-8.25 -53.21,-8.39 -53.01,-8.47 -52.82,-8.56 -52.61,-8.58 -52.40,-8.59 -52.19,-8.54 -51.98,-8.49 -51.80,-8.38 -51.62,-8.26 -51.49,-8.10 -51.36,-7.93 -51.28,-7.73 -51.21,-7.54 -51.20,-7.32 -51.20,-7.11 -51.26,-6.91 -51.32,-6.70 -51.44,-6.53 -51.57,-6.36 -51.74,-6.23 -51.91,-6.11 -52.11,-6.05 -52.32,-5.98 -52.53,-5.99 -52.74,-5.99 -52.94,-6.07 -53.14,-6.14 -53.31,-6.27 -53.47,-6.40 -53.59,-6.58 -53.70,-6.76 -53.75,-6.97 -53.81,-7.17 -53.79,-7.39 -53.77,-7.60 -53.69,-7.79 -53.61,-7.99 -53.47,-8.15 -53.32,-8.31 -53.14,-8.41 -52.95,-8.52 -52.75,-8.56 -52.54,-8.60 -52.33,-8.57 -52.12,-8.54 -51.93,-8.45 -51.74,-8.35 -51.74,-8.35 -51.74,-8.35 -49.09,-7.39 -46.45,-6.43 -44.52,-5.23 -42.58,-4.04 -41.52,-3.44 -40.45,-2.85 -39.01,-2.54 -37.57,-2.24 -35.85,-2.12 -34.14,-2.01 -32.20,-2.09 -30.26,-2.17 -28.16,-2.39 -26.06,-2.61 -23.60,-2.77 -21.14,-2.93 -19.56,-3.05 -17.99,-3.17 -16.63,-3.14 -15.27,-3.11 -14.11,-3.09 -12.94,-3.07 -10.63,-2.89 -8.32,-2.71 -7.20,-2.63 -6.08,-2.56 -4.83,-2.44 -3.58,-2.32 -1.73,-1.92 0.11,-1.53 0.29,-1.49 0.48,-1.46 0.64,-1.38 0.81,-1.30 0.96,-1.18 1.10,-1.06 1.21,-0.92 1.32,-0.77 1.40,-0.60 1.47,-0.43 1.50,-0.25 1.53,-0.06 1.52,0.11 1.50,0.30 1.45,0.47 1.39,0.65 1.29,0.81 1.19,0.96 1.06,1.09 0.92,1.22 0.76,1.31 0.60,1.41 0.43,1.46 0.25,1.51 0.06,1.52 -0.11,1.53 -0.11,1.53 L -0.11,1.53 Z"/></g><g transform="translate(135.50953719101256 43.5) rotate(0 -15.25 -16.25)" stroke="none"><path fill="#000000" d="M 0.38,1.52 Q 0.38,1.52 -0.70,2.06 -1.79,2.60 -3.72,2.88 -5.64,3.15 -6.92,3.10 -8.19,3.05 -10.36,2.48 -12.53,1.90 -13.64,1.20 -14.76,0.49 -15.72,-0.17 -16.69,-0.85 -17.77,-1.78 -18.85,-2.71 -19.87,-3.68 -20.90,-4.65 -21.83,-5.71 -22.77,-6.78 -23.59,-7.51 -24.42,-8.24 -26.51,-9.87 -28.60,-11.50 -29.40,-12.23 -30.19,-12.97 -31.30,-14.75 -32.41,-16.53 -32.34,-18.45 -32.26,-20.37 -31.30,-22.48 -30.33,-24.60 -28.14,-26.07 -25.95,-27.53 -24.20,-28.34 -22.45,-29.15 -21.01,-29.77 -19.57,-30.39 -17.78,-31.10 -16.00,-31.80 -13.99,-32.65 -11.98,-33.50 -9.49,-33.90 -6.99,-34.30 -6.79,-34.34 -6.58,-34.39 -6.37,-34.37 -6.16,-34.35 -5.96,-34.27 -5.77,-34.18 -5.61,-34.04 -5.46,-33.89 -5.35,-33.71 -5.25,-33.52 -5.21,-33.31 -5.18,-33.10 -5.21,-32.89 -5.24,-32.68 -5.34,-32.49 -5.43,-32.30 -5.59,-32.15 -5.74,-32.01 -5.93,-31.91 -6.12,-31.82 -6.33,-31.80 -6.54,-31.77 -6.75,-31.81 -6.96,-31.86 -7.14,-31.96 -7.33,-32.07 -7.47,-32.23 -7.61,-32.39 -7.69,-32.59 -7.77,-32.78 -7.78,-33.00 -7.80,-33.21 -7.74,-33.41 -7.69,-33.62 -7.57,-33.80 -7.46,-33.97 -7.29,-34.10 -7.12,-34.23 -6.92,-34.31 -6.72,-34.38 -6.51,-34.38 -6.30,-34.38 -6.09,-34.32 -5.89,-34.25 -5.72,-34.12 -5.55,-34.00 -5.43,-33.82 -5.31,-33.65 -5.25,-33.45 -5.19,-33.24 -5.20,-33.03 -5.20,-32.82 -5.28,-32.62 -5.36,-32.42 -5.49,-32.26 -5.63,-32.09 -5.81,-31.98 -5.99,-31.87 -5.99,-31.87 -5.99,-31.87 -8.01,-30.39 -10.03,-28.92 -12.10,-28.04 -14.17,-27.15 -15.88,-26.48 -17.59,-25.80 -18.98,-25.21 -20.36,-24.62 -21.86,-23.93 -23.36,-23.24 -25.11,-21.99 -26.86,-20.73 -27.03,-19.26 -27.19,-17.79 -26.12,-16.67 -25.04,-15.55 -24.05,-14.67 -23.06,-13.78 -21.93,-13.02 -20.81,-12.25 -19.76,-11.29 -18.71,-10.33 -17.94,-9.44 -17.17,-8.55 -16.22,-7.64 -15.27,-6.72 -14.41,-5.92 -13.55,-5.13 -12.66,-4.44 -11.76,-3.75 -10.45,-2.94 -9.15,-2.12 -7.53,-1.71 -5.91,-1.30 -4.36,-1.38 -2.80,-1.45 -1.59,-1.49 -0.38,-1.52 -0.19,-1.55 -0.00,-1.57 0.18,-1.55 0.37,-1.52 0.54,-1.46 0.72,-1.39 0.88,-1.28 1.04,-1.18 1.16,-1.04 1.29,-0.89 1.38,-0.73 1.47,-0.56 1.51,-0.37 1.56,-0.19 1.56,-0.00 1.56,0.18 1.51,0.36 1.47,0.55 1.38,0.72 1.29,0.89 1.17,1.03 1.04,1.17 0.89,1.28 0.73,1.39 0.55,1.45 0.38,1.52 0.38,1.52 L 0.38,1.52 Z"/></g><g stroke-linecap="round" transform="translate(347.3997195097046 80.56002804902954) rotate(0 37 37.25)"><path d="M7.37 2.43 C7.37 2.43, 7.37 2.43, 7.37 2.43 M7.37 2.43 C7.37 2.43, 7.37 2.43, 7.37 2.43 M3.83 12.61 C7.09 7.44, 10.91 4.69, 13.67 1.28 M3.83 12.61 C7.41 9.07, 10.17 5.02, 13.67 1.28 M3.57 19 C11.24 10.5, 16.93 3.38, 19.31 0.89 M3.57 19 C9.82 11.44, 14.85 6.22, 19.31 0.89 M3.31 25.4 C9.1 20.95, 10.81 16.35, 24.96 0.5 M3.31 25.4 C10.21 15.78, 18.62 6.53, 24.96 0.5 M3.05 31.8 C14.23 20.78, 22.59 10.25, 29.94 0.86 M3.05 31.8 C8.27 24.04, 15.1 17.38, 29.94 0.86 M3.44 37.44 C9.97 29.04, 19.56 18.88, 34.93 1.22 M3.44 37.44 C13.78 27.9, 21.34 16.15, 34.93 1.22 M3.18 43.84 C14.56 32.23, 20.41 21.16, 40.57 0.82 M3.18 43.84 C14.26 31.67, 26.29 17.99, 40.57 0.82 M2.92 50.24 C15.24 37.8, 22.89 22.8, 45.56 1.18 M2.92 50.24 C17.58 32.85, 32.66 17.37, 45.56 1.18 M2 57.39 C12.42 42.54, 25.4 29.3, 51.2 0.79 M2 57.39 C18.11 37.87, 35.35 19.88, 51.2 0.79 M3.05 62.28 C17.59 45.8, 32.14 31.42, 56.19 1.15 M3.05 62.28 C15.77 48.42, 27.07 33.58, 56.19 1.15 M3.45 67.92 C27.13 42.88, 46.93 14.54, 61.18 1.51 M3.45 67.92 C22.73 44.48, 41.41 21.44, 61.18 1.51 M6.46 70.55 C20.37 56.08, 32.49 37.75, 65.51 2.62 M6.46 70.55 C20.24 55.98, 34.15 38.95, 65.51 2.62 M8.83 73.92 C29.19 46.28, 51.2 20.58, 69.18 4.49 M8.83 73.92 C27.94 53.06, 45.6 31.38, 69.18 4.49 M13.16 75.04 C30.11 55.86, 46.14 36.03, 71.55 7.87 M13.16 75.04 C32.42 51.59, 53.71 27.26, 71.55 7.87 M16.83 76.91 C31.56 61.43, 47.98 42.26, 72.6 12.76 M16.83 76.91 C31 60.73, 47.05 44.9, 72.6 12.76 M22.48 76.51 C36.78 62.33, 48.97 46.5, 74.3 16.89 M22.48 76.51 C39.31 58.54, 56.52 38.77, 74.3 16.89 M27.46 76.87 C46.27 55.19, 67.39 32.96, 76.67 20.27 M27.46 76.87 C40.77 60.71, 56.58 44.73, 76.67 20.27 M33.11 76.48 C43.63 60.93, 55.52 49.45, 76.41 26.67 M33.11 76.48 C47.97 58.71, 64.19 38.76, 76.41 26.67 M38.09 76.84 C50.16 62.38, 58.26 50.74, 76.14 33.07 M38.09 76.84 C48.47 64.89, 56.74 54.64, 76.14 33.07 M43.08 77.2 C51 67.21, 56.39 58.5, 76.54 38.71 M43.08 77.2 C52.16 66.1, 63.09 54.32, 76.54 38.71 M48.72 76.81 C56.29 68.87, 63.53 60.3, 76.28 45.11 M48.72 76.81 C58.16 67.72, 66.52 57.46, 76.28 45.11 M55.68 74.9 C61.33 68.94, 66.08 59.95, 76.02 51.51 M55.68 74.9 C60.03 70.35, 64.65 65.13, 76.02 51.51 M62.63 73 C67.32 68.72, 73.14 60.72, 76.41 57.15 M62.63 73 C67.16 67.46, 72.31 61.36, 76.41 57.15" stroke="#fa5252" stroke-width="0.5" fill="none"/><path d="M18.5 0 M18.5 0 C32.92 -0.16, 45.96 -0.78, 55.5 0 M18.5 0 C31.3 0.36, 44.63 0.77, 55.5 0 M55.5 0 C69.59 0.66, 75.67 6.95, 74 18.5 M55.5 0 C67.5 0.66, 76.11 5.32, 74 18.5 M74 18.5 C74.33 29.57, 74.03 45.07, 74 56 M74 18.5 C73.72 27.59, 74.85 36.58, 74 56 M74 56 C72.77 66.72, 66.47 73.91, 55.5 74.5 M74 56 C75.32 69.74, 67.89 72.88, 55.5 74.5 M55.5 74.5 C46.7 72.72, 40.29 74.92, 18.5 74.5 M55.5 74.5 C44.16 75.28, 31.74 74.03, 18.5 74.5 M18.5 74.5 C4.61 74.43, 0.84 69.9, 0 56 M18.5 74.5 C4.82 73.51, 0.1 66.94, 0 56 M0 56 C-0.93 46.45, -0.88 34.18, 0 18.5 M0 56 C-0.92 41.28, 0.62 27.32, 0 18.5 M0 18.5 C-0.44 6.02, 6.87 1.01, 18.5 0 M0 18.5 C-2.07 8.31, 5.89 -0.21, 18.5 0" stroke="#c92a2a" stroke-width="1" fill="none"/></g><g stroke-linecap="round" transform="translate(10 85.6698457303375) rotate(0 33.5 33)"><path d="M6.13 2.68 C6.13 2.68, 6.13 2.68, 6.13 2.68 M6.13 2.68 C6.13 2.68, 6.13 2.68, 6.13 2.68 M3.9 11.34 C6.6 7.17, 11.08 3.13, 13.09 0.78 M3.9 11.34 C6.66 8.25, 10.07 3.94, 13.09 0.78 M3.64 17.74 C8.29 15.11, 11.27 8.59, 18.07 1.14 M3.64 17.74 C9.34 10.58, 16.16 5.12, 18.07 1.14 M3.38 24.14 C6.74 20.63, 12.48 16.44, 23.06 1.5 M3.38 24.14 C7.98 19.06, 14.82 12.54, 23.06 1.5 M3.12 30.54 C9.57 23.62, 15.15 14.45, 28.7 1.1 M3.12 30.54 C11.33 21.26, 20.36 11.19, 28.7 1.1 M2.86 36.93 C14.49 23.14, 24.65 12.29, 33.69 1.46 M2.86 36.93 C13.97 24.65, 25.21 10.59, 33.69 1.46 M2.6 43.33 C13.36 30.26, 27.71 15.58, 39.33 1.07 M2.6 43.33 C15.62 29.97, 26.54 14.59, 39.33 1.07 M1.68 50.48 C20.12 33.31, 33.46 10.82, 44.32 1.43 M1.68 50.48 C17.83 33.97, 32.48 16.09, 44.32 1.43 M2.73 55.37 C17.9 40.71, 30 23.42, 49.31 1.79 M2.73 55.37 C17.73 38.64, 32.3 21.89, 49.31 1.79 M3.78 60.26 C17.5 43.83, 32.02 25.8, 54.95 1.39 M3.78 60.26 C21.32 40.6, 37.11 22.01, 54.95 1.39 M6.14 63.64 C20.55 44.47, 34.91 26.91, 59.28 2.51 M6.14 63.64 C20.2 46.07, 33.72 30.71, 59.28 2.51 M9.16 66.26 C24.95 50.35, 39.24 34.38, 62.96 4.38 M9.16 66.26 C22.2 50.29, 34.36 35.34, 62.96 4.38 M14.15 66.62 C30.54 46.62, 47.91 26.06, 65.98 7 M14.15 66.62 C32.83 45.72, 50.26 26.15, 65.98 7 M19.13 66.98 C37.29 47.27, 57.13 22.91, 67.03 11.89 M19.13 66.98 C32.06 51.54, 46.87 34.39, 67.03 11.89 M24.78 66.59 C37.46 53.11, 47.81 42.7, 68.08 16.78 M24.78 66.59 C33.97 56.77, 44.24 46.13, 68.08 16.78 M29.76 66.95 C41.93 51.23, 56.81 38.12, 67.82 23.18 M29.76 66.95 C40.77 55.84, 50.65 44.03, 67.82 23.18 M34.75 67.31 C45.89 54.66, 56.77 43.13, 67.55 29.57 M34.75 67.31 C43.31 57.82, 53.22 46.5, 67.55 29.57 M40.39 66.92 C50.1 56.17, 61.23 43.53, 67.95 35.22 M40.39 66.92 C45.92 60.06, 52.84 51.29, 67.95 35.22 M45.38 67.28 C55.96 58.27, 62.61 47.4, 67.69 41.62 M45.38 67.28 C50.69 60.24, 56.01 55.62, 67.69 41.62 M51.02 66.88 C59.53 60.91, 62.54 51.71, 67.43 48.01 M51.02 66.88 C54.24 63.72, 57.01 58.77, 67.43 48.01 M57.98 64.98 C60.52 60.53, 66.47 55.1, 67.82 53.66 M57.98 64.98 C61.38 60.29, 64.39 56.74, 67.82 53.66" stroke="#fa5252" stroke-width="0.5" fill="none"/><path d="M16.5 0 M16.5 0 C30.21 0.6, 39.97 -0.97, 50.5 0 M16.5 0 C26.58 0.44, 38.67 1.11, 50.5 0 M50.5 0 C63.29 1.45, 65.21 5.59, 67 16.5 M50.5 0 C60.92 -1.26, 64.97 3.99, 67 16.5 M67 16.5 C65.9 26.22, 67.68 37.06, 67 49.5 M67 16.5 C67.72 25.14, 67.64 34.83, 67 49.5 M67 49.5 C67.59 60.55, 60.27 67.78, 50.5 66 M67 49.5 C67.05 59.54, 63.44 67.86, 50.5 66 M50.5 66 C39.21 65.22, 28.36 66.05, 16.5 66 M50.5 66 C37.16 66.04, 24.44 65.37, 16.5 66 M16.5 66 C6.47 66.97, -1.45 61.64, 0 49.5 M16.5 66 C4.94 64.64, -0.05 60.4, 0 49.5 M0 49.5 C-0.73 42.31, 1.18 34.86, 0 16.5 M0 49.5 C0.34 41.17, 0.3 30.33, 0 16.5 M0 16.5 C0.87 4.68, 4.51 0.42, 16.5 0 M0 16.5 C-1.98 3.21, 5.12 -1.98, 16.5 0" stroke="#c92a2a" stroke-width="1" fill="none"/></g><g stroke-linecap="round" transform="translate(172.9498597548523 85.40625) rotate(0 35.875 34.75)"><path d="M7.04 2.15 C7.04 2.15, 7.04 2.15, 7.04 2.15 M7.04 2.15 C7.04 2.15, 7.04 2.15, 7.04 2.15 M3.5 12.32 C6.16 9.99, 8.32 6.25, 13.34 1 M3.5 12.32 C7.27 7.98, 10.61 3.88, 13.34 1 M3.24 18.72 C7.03 15.11, 12.43 11.27, 18.33 1.36 M3.24 18.72 C8.38 14.09, 13.64 7.67, 18.33 1.36 M3.64 24.36 C11.81 17.02, 18.72 7.08, 23.97 0.96 M3.64 24.36 C8.98 17.93, 14.1 11.82, 23.97 0.96 M3.37 30.76 C6.29 26.17, 12.5 20.59, 28.96 1.32 M3.37 30.76 C8.55 24, 14.76 16.47, 28.96 1.32 M3.11 37.16 C14.94 24.46, 23.42 11.74, 34.6 0.93 M3.11 37.16 C12.12 26.37, 21.19 16.46, 34.6 0.93 M2.85 43.55 C8.83 35.64, 19.46 24.85, 39.59 1.29 M2.85 43.55 C13.62 30.34, 23.42 18.69, 39.59 1.29 M0.62 52.22 C16.33 31.53, 33.26 13.74, 45.23 0.9 M0.62 52.22 C10.86 40.55, 22.48 28.37, 45.23 0.9 M1.67 57.1 C21.43 33.89, 39.81 15.09, 50.22 1.26 M1.67 57.1 C18.17 37.76, 34.18 20.69, 50.22 1.26 M2.72 61.99 C16.49 48.24, 27.17 32.15, 55.21 1.62 M2.72 61.99 C14.38 49.73, 24.26 36.71, 55.21 1.62 M5.09 65.37 C22.09 45.6, 39.93 28.4, 60.19 1.98 M5.09 65.37 C24.27 41.49, 46.02 18.24, 60.19 1.98 M8.1 68 C25.39 51.1, 40.61 33.04, 65.18 2.34 M8.1 68 C19.39 53.92, 31.27 40.5, 65.18 2.34 M12.44 69.11 C35.13 45.93, 56 22.66, 67.54 5.71 M12.44 69.11 C25.69 53.5, 38.65 38.25, 67.54 5.71 M15.45 71.73 C33.37 50.5, 52.84 28.35, 70.56 8.34 M15.45 71.73 C32.03 51.5, 51.72 30.64, 70.56 8.34 M21.1 71.34 C37.02 54.85, 50.52 35.76, 71.61 13.23 M21.1 71.34 C38.27 51.99, 55.17 33.48, 71.61 13.23 M26.08 71.7 C38.12 57.41, 49.98 43.47, 72.66 18.12 M26.08 71.7 C42.54 53.06, 57.14 35.66, 72.66 18.12 M31.73 71.31 C41.08 63.89, 50.19 54.01, 72.4 24.51 M31.73 71.31 C42.55 59.87, 53.89 47.48, 72.4 24.51 M36.71 71.67 C45.08 58.96, 56.95 49.7, 72.8 30.16 M36.71 71.67 C48.07 58.26, 60.32 45.93, 72.8 30.16 M42.36 71.27 C49.55 60.61, 60.06 50.34, 72.54 36.55 M42.36 71.27 C48.63 63.53, 54.88 56.14, 72.54 36.55 M47.34 71.63 C55.28 64.02, 61.44 55.17, 72.27 42.95 M47.34 71.63 C52.83 65.55, 58.6 57.91, 72.27 42.95 M54.3 69.73 C57.93 65.36, 63.37 60.78, 72.67 48.6 M54.3 69.73 C61.22 61.28, 68.52 54.97, 72.67 48.6 M61.25 67.82 C62.91 64.39, 66.52 60.61, 72.41 54.99 M61.25 67.82 C64.28 64.07, 68.27 60.26, 72.41 54.99" stroke="#40c057" stroke-width="0.5" fill="none"/><path d="M17.38 0 M17.38 0 C28.18 0.29, 42.07 0.08, 54.38 0 M17.38 0 C29.28 -0.08, 39.28 -0.71, 54.38 0 M54.38 0 C67.52 -0.68, 72.08 6.21, 71.75 17.38 M54.38 0 C67.17 -2.07, 70.04 6.01, 71.75 17.38 M71.75 17.38 C72.11 24.18, 71.42 35.35, 71.75 52.13 M71.75 17.38 C72.39 25.75, 72.34 33.52, 71.75 52.13 M71.75 52.13 C71.46 62.04, 66.77 69.19, 54.38 69.5 M71.75 52.13 C73.17 63.02, 67.88 67.89, 54.38 69.5 M54.38 69.5 C45.1 71.63, 31.25 71.57, 17.38 69.5 M54.38 69.5 C44.61 68.75, 35.69 68.8, 17.38 69.5 M17.38 69.5 C6.9 69.81, -0.41 65.69, 0 52.13 M17.38 69.5 C4.89 69.93, -0.83 63.27, 0 52.13 M0 52.13 C-0.2 43.56, 0.51 36.75, 0 17.38 M0 52.13 C0.14 44.3, 0.93 36.63, 0 17.38 M0 17.38 C0.74 5.34, 5.09 0.99, 17.38 0 M0 17.38 C0.23 7.33, 7.98 1.29, 17.38 0" stroke="#5c940d" stroke-width="1" fill="none"/></g><g stroke-linecap="round" transform="translate(169.1998597548523 329.40625) rotate(0 33.25 33)"><path d="M16.27 -1.03 L54.2 0.15 L58.15 0.61 L63.37 7.84 L68.12 17.38 L65.87 51.86 L64.24 59.24 L58.81 62.91 L50.93 64.86 L14.14 66.62 L8.01 65.44 L2.94 61.4 L1.1 48.4 L1.67 11.05 L6.94 2.32 L18.42 1.46" stroke="none" stroke-width="0" fill="#40c057"/><path d="M16.5 0 M16.5 0 C22.99 -0.35, 32.54 0.7, 50 0 M16.5 0 C27.84 0.5, 40.61 0.94, 50 0 M50 0 C61.43 -0.39, 66.24 5.59, 66.5 16.5 M50 0 C59.77 -0.21, 66.36 4.91, 66.5 16.5 M66.5 16.5 C66.86 29.46, 64.81 38.94, 66.5 49.5 M66.5 16.5 C66.3 28.83, 67.19 40.82, 66.5 49.5 M66.5 49.5 C67.61 61.87, 59.21 66.52, 50 66 M66.5 49.5 C67.03 59.24, 60.7 64.46, 50 66 M50 66 C38 67.84, 28.82 67.74, 16.5 66 M50 66 C38.32 65.67, 24.44 65.85, 16.5 66 M16.5 66 C3.59 66.68, 1.38 59.58, 0 49.5 M16.5 66 C5.44 65.64, 1.17 59.01, 0 49.5 M0 49.5 C-2.07 39.57, 1.21 28.57, 0 16.5 M0 49.5 C0.38 40.32, -0.42 29.59, 0 16.5 M0 16.5 C0.6 4.54, 4.8 0.43, 16.5 0 M0 16.5 C-0.77 6.5, 6.27 -0.88, 16.5 0" stroke="#5c940d" stroke-width="1" fill="none"/></g></svg>