<svg version="1.1" xmlns="http://www.w3.org/2000/svg" viewBox="0 0 431.3997195097046 410" width="431.3997195097046" height="410">
  <!-- svg-source:excalidraw -->
  
  <defs>
    <style class="style-fonts">
      @font-face {
        font-family: "Virgil";
        src: url("https://excalidraw.com/Virgil.woff2");
      }
      @font-face {
        font-family: "Cascadia";
        src: url("https://excalidraw.com/Cascadia.woff2");
      }
    </style>
  </defs>
  <rect x="0" y="0" width="431.3997195097046" height="410" fill="#ffffff"/><g transform="translate(182.00953719101256 98.5) rotate(0 32.75 24.25)" stroke="none"><path fill="#5c940d" d="M -1.34,0.22 Q -1.34,0.22 -1.69,-0.60 -2.04,-1.43 -1.48,-3.19 -0.91,-4.96 0.15,-5.07 1.22,-5.17 2.05,-4.19 2.88,-3.21 2.96,-2.04 3.03,-0.87 3.04,0.36 3.06,1.61 3.06,2.82 3.06,4.03 3.07,5.34 3.08,6.66 3.08,8.31 3.07,9.97 3.07,11.09 3.06,12.20 3.06,13.37 3.06,14.53 3.06,16.12 3.05,17.70 3.01,19.08 2.97,20.46 2.87,22.48 2.77,24.50 2.75,25.79 2.74,27.08 2.93,28.83 3.12,30.58 3.16,32.21 3.20,33.83 3.20,35.03 3.20,36.23 3.20,38.00 3.19,39.77 3.17,40.97 3.14,42.17 3.12,43.56 3.09,44.96 3.08,46.57 3.08,48.18 3.08,49.44 3.08,50.71 2.86,51.93 2.65,53.16 2.23,54.42 1.81,55.67 1.91,54.55 2.00,53.43 3.04,54.25 4.07,55.08 5.71,55.11 7.35,55.14 8.53,55.19 9.70,55.24 10.94,55.27 12.17,55.30 14.36,55.46 16.55,55.62 18.24,55.84 19.94,56.06 21.40,56.14 22.85,56.22 24.33,56.41 25.80,56.60 27.15,56.67 28.50,56.74 30.07,56.77 31.65,56.80 33.31,56.96 34.97,57.13 36.41,57.35 37.86,57.57 39.05,57.64 40.25,57.72 41.61,57.76 42.97,57.79 44.27,57.81 45.56,57.83 47.82,57.29 50.08,56.76 51.49,56.61 52.90,56.47 54.07,56.27 55.24,56.08 56.76,56.12 58.28,56.16 59.65,56.34 61.02,56.52 62.20,56.75 63.39,56.97 64.47,57.22 65.56,57.46 67.05,58.21 68.54,58.97 67.72,58.00 66.89,57.04 66.43,55.13 65.97,53.23 65.84,51.86 65.71,50.49 65.53,49.37 65.35,48.25 65.13,47.05 64.92,45.85 64.80,44.30 64.69,42.75 64.51,41.38 64.34,40.01 64.25,38.43 64.16,36.84 63.99,35.61 63.83,34.37 63.60,32.33 63.38,30.29 63.15,28.77 62.92,27.26 62.81,24.86 62.69,22.45 62.65,20.90 62.60,19.34 62.59,17.80 62.57,16.27 62.56,14.89 62.56,13.52 62.71,12.18 62.86,10.85 62.91,9.05 62.97,7.25 62.99,5.88 63.02,4.50 63.19,3.28 63.36,2.07 63.25,0.33 63.14,-1.40 62.89,-3.05 62.65,-4.71 62.78,-6.38 62.90,-8.06 62.97,-9.63 63.03,-11.20 62.89,-12.01 62.75,-12.82 62.80,-13.17 62.84,-13.53 62.97,-13.86 63.10,-14.19 63.30,-14.48 63.51,-14.77 63.77,-15.01 64.04,-15.24 64.36,-15.41 64.68,-15.57 65.02,-15.65 65.37,-15.74 65.72,-15.73 66.08,-15.73 66.43,-15.65 66.77,-15.56 67.09,-15.39 67.40,-15.22 67.66,-14.99 67.93,-14.75 68.13,-14.45 68.33,-14.16 68.46,-13.82 68.58,-13.49 68.62,-13.14 68.66,-12.78 68.10,-11.70 67.54,-10.62 66.29,-10.08 65.03,-9.54 63.71,-9.85 62.38,-10.17 60.68,-9.76 58.99,-9.36 57.29,-8.76 55.59,-8.15 54.49,-7.79 53.39,-7.44 52.35,-7.14 51.31,-6.85 50.10,-6.57 48.89,-6.29 47.66,-6.02 46.43,-5.76 45.19,-5.50 43.95,-5.24 41.99,-4.85 40.02,-4.45 38.43,-4.02 36.83,-3.59 35.29,-3.12 33.76,-2.66 32.07,-2.16 30.37,-1.66 28.65,-1.17 26.92,-0.67 25.11,-0.05 23.31,0.57 21.28,1.15 19.26,1.73 17.42,2.26 15.58,2.78 13.68,3.18 11.78,3.57 9.41,4.02 7.04,4.47 5.22,4.53 3.41,4.60 2.12,4.62 0.84,4.63 -1.10,4.10 -3.05,3.58 -2.51,2.41 -1.97,1.25 -2.12,1.19 -2.26,1.13 -2.39,1.04 -2.52,0.94 -2.62,0.82 -2.72,0.70 -2.79,0.56 -2.86,0.42 -2.89,0.26 -2.93,0.11 -2.92,-0.04 -2.92,-0.20 -2.88,-0.35 -2.83,-0.50 -2.76,-0.64 -2.68,-0.78 -2.57,-0.90 -2.46,-1.01 -2.33,-1.10 -2.20,-1.18 -2.05,-1.24 -1.90,-1.29 -1.74,-1.30 -1.58,-1.32 -1.43,-1.29 -1.27,-1.27 -1.23,-1.26 -1.19,-1.25 -1.01,-1.15 -0.82,-1.05 -0.67,-0.89 -0.53,-0.74 -0.44,-0.54 -0.35,-0.35 -0.33,-0.14 -0.31,0.06 -0.36,0.27 -0.40,0.48 -0.51,0.66 -0.62,0.84 -0.79,0.98 -0.95,1.12 -1.15,1.19 -1.35,1.27 -1.56,1.28 -1.77,1.29 -1.97,1.23 -2.18,1.17 -2.35,1.05 -2.53,0.93 -2.66,0.76 -2.78,0.59 -2.85,0.39 -2.92,0.19 -2.92,-0.01 -2.91,-0.22 -2.85,-0.43 -2.78,-0.63 -2.65,-0.79 -2.52,-0.96 -2.34,-1.08 -2.16,-1.20 -1.96,-1.25 -1.75,-1.31 -1.54,-1.30 -1.33,-1.29 -1.13,-1.21 -0.94,-1.13 -0.78,-0.99 -0.61,-0.85 -0.51,-0.67 -0.40,-0.48 -0.35,-0.28 -0.31,-0.07 -0.33,0.13 -0.36,0.34 -0.45,0.54 -0.54,0.73 -0.68,0.88 -0.83,1.04 -1.02,1.13 -1.21,1.23 -1.42,1.27 -1.63,1.30 -1.80,1.28 -1.97,1.25 -2.12,1.19 -2.26,1.13 -2.39,1.04 -2.52,0.94 -2.62,0.82 -2.72,0.70 -2.79,0.56 -2.86,0.42 -2.89,0.26 -2.93,0.11 -2.92,-0.04 -2.92,-0.20 -2.88,-0.35 -2.83,-0.50 -2.76,-0.64 -2.68,-0.78 -2.57,-0.90 -2.46,-1.01 -2.33,-1.10 -2.20,-1.18 -2.05,-1.24 -1.90,-1.29 -1.74,-1.30 -1.58,-1.32 -1.43,-1.29 -1.27,-1.27 -1.34,-1.80 -1.41,-2.33 -0.29,-2.01 0.82,-1.68 2.02,-1.71 3.22,-1.73 4.55,-1.76 5.87,-1.78 8.18,-2.22 10.49,-2.65 12.16,-3.00 13.83,-3.34 15.66,-3.86 17.49,-4.39 19.37,-4.93 21.24,-5.47 23.20,-6.13 25.15,-6.79 26.87,-7.29 28.58,-7.78 30.24,-8.27 31.91,-8.76 33.54,-9.25 35.18,-9.75 36.97,-10.22 38.76,-10.70 40.72,-11.10 42.67,-11.49 43.89,-11.74 45.11,-11.98 46.29,-12.23 47.47,-12.47 48.54,-12.72 49.61,-12.96 51.40,-13.47 53.20,-13.99 54.33,-14.43 55.46,-14.87 57.02,-15.31 58.58,-15.75 60.36,-16.09 62.13,-16.42 63.37,-15.94 64.61,-15.45 63.68,-14.13 62.75,-12.82 62.80,-13.17 62.84,-13.53 62.97,-13.86 63.10,-14.19 63.30,-14.48 63.51,-14.77 63.77,-15.01 64.04,-15.24 64.36,-15.41 64.67,-15.57 65.02,-15.65 65.37,-15.74 65.72,-15.73 66.08,-15.73 66.43,-15.65 66.77,-15.56 67.08,-15.39 67.40,-15.22 67.66,-14.99 67.93,-14.75 68.13,-14.45 68.33,-14.16 68.46,-13.82 68.58,-13.49 68.62,-13.14 68.66,-12.78 68.64,-13.01 68.63,-13.24 68.78,-12.17 68.93,-11.09 68.89,-9.73 68.85,-8.36 68.59,-6.62 68.33,-4.89 68.66,-3.40 69.00,-1.91 69.16,-0.46 69.33,0.98 69.11,2.79 68.90,4.61 68.87,6.02 68.85,7.44 68.65,10.47 68.46,13.49 68.47,14.85 68.48,16.20 68.49,17.69 68.51,19.18 68.55,20.68 68.60,22.19 68.68,24.29 68.77,26.38 69.01,28.01 69.26,29.65 69.47,31.62 69.69,33.60 69.87,35.06 70.06,36.53 70.13,37.90 70.20,39.27 70.39,40.81 70.58,42.35 70.66,43.57 70.73,44.80 70.96,46.08 71.19,47.35 71.46,49.67 71.72,51.98 71.95,53.02 72.17,54.07 72.56,56.04 72.95,58.02 72.65,59.90 72.34,61.79 71.48,62.59 70.63,63.39 69.06,63.63 67.50,63.87 65.92,63.35 64.34,62.83 62.31,62.40 60.28,61.97 58.16,61.72 56.05,61.48 54.71,61.66 53.38,61.85 52.28,61.93 51.17,62.01 49.92,62.25 48.67,62.50 47.10,62.81 45.53,63.12 44.18,63.10 42.83,63.08 41.36,63.04 39.89,63.00 38.47,62.90 37.06,62.80 35.75,62.60 34.43,62.39 32.99,62.24 31.54,62.09 29.88,62.06 28.21,62.02 26.66,61.94 25.11,61.85 23.83,61.68 22.55,61.50 20.90,61.41 19.26,61.31 17.71,61.10 16.16,60.90 14.10,60.75 12.03,60.59 10.71,60.56 9.39,60.52 6.92,60.22 4.45,59.92 2.41,58.87 0.38,57.83 -0.30,56.98 -0.99,56.13 -1.27,54.91 -1.54,53.69 -1.31,52.19 -1.08,50.69 -1.08,49.43 -1.08,48.18 -1.08,46.57 -1.09,44.96 -1.12,43.57 -1.15,42.17 -1.17,40.97 -1.19,39.77 -1.20,38.01 -1.22,36.25 -1.23,34.32 -1.25,32.40 -1.33,30.88 -1.41,29.37 -1.57,28.23 -1.74,27.09 -1.75,25.80 -1.77,24.50 -1.87,22.48 -1.97,20.46 -2.01,19.08 -2.05,17.70 -2.06,16.12 -2.06,14.53 -2.06,13.37 -2.06,12.20 -2.07,11.09 -2.07,9.97 -2.08,8.31 -2.08,6.66 -2.07,5.03 -2.06,3.41 -2.05,1.97 -2.04,0.54 -1.41,-0.62 -0.79,-1.79 0.34,-1.90 1.47,-2.01 1.41,-1.12 1.34,-0.22 1.35,-0.06 1.36,0.10 1.32,0.26 1.29,0.42 1.22,0.57 1.15,0.72 1.05,0.85 0.94,0.98 0.81,1.08 0.68,1.17 0.53,1.24 0.38,1.30 0.22,1.33 0.06,1.36 -0.10,1.35 -0.26,1.33 -0.42,1.28 -0.58,1.23 -0.71,1.14 -0.85,1.06 -0.97,0.94 -1.08,0.82 -1.17,0.68 -1.25,0.54 -1.30,0.38 -1.34,0.22 -1.34,0.22 L -1.34,0.22 Z"/></g><g transform="translate(186.50953719101256 106) rotate(0 28 17.25)" stroke="none"><path fill="#5c940d" d="M 1.41,0.14 Q 1.41,0.14 1.54,1.60 1.67,3.07 1.61,4.34 1.56,5.62 1.19,7.99 0.83,10.37 0.50,12.75 0.17,15.13 -0.14,16.90 -0.45,18.66 -0.47,19.40 -0.49,20.13 -0.54,20.32 -0.59,20.50 -0.68,20.66 -0.77,20.83 -0.90,20.97 -1.03,21.11 -1.19,21.21 -1.35,21.31 -1.53,21.38 -1.71,21.44 -1.90,21.46 -2.09,21.47 -2.28,21.45 -2.46,21.42 -2.64,21.34 -2.81,21.27 -2.97,21.16 -3.12,21.05 -3.24,20.90 -3.36,20.76 -3.45,20.59 -3.53,20.42 -3.57,20.23 -3.61,20.05 -3.61,19.86 -3.60,19.67 -2.80,17.67 -2.00,15.68 -1.13,12.91 -0.26,10.14 0.37,7.83 1.02,5.52 1.42,3.70 1.81,1.88 2.27,0.31 2.73,-1.26 3.20,-2.55 3.67,-3.84 3.94,-4.89 4.21,-5.95 4.51,-6.98 4.81,-8.02 4.93,-8.24 5.05,-8.47 5.23,-8.67 5.40,-8.86 5.61,-9.00 5.83,-9.15 6.07,-9.24 6.32,-9.33 6.57,-9.36 6.83,-9.39 7.09,-9.35 7.34,-9.32 7.59,-9.22 7.83,-9.13 8.04,-8.98 8.25,-8.83 8.42,-8.64 8.59,-8.44 8.71,-8.21 8.83,-7.98 8.89,-7.73 8.95,-7.48 8.95,-7.22 8.94,-6.96 8.88,-6.71 8.81,-6.45 8.49,-5.40 8.17,-4.34 7.73,-3.03 7.29,-1.72 6.83,-0.07 6.37,1.57 5.58,3.94 4.78,6.30 4.03,8.70 3.27,11.10 2.52,13.81 1.78,16.52 0.86,19.45 -0.04,22.38 -0.84,25.30 -1.64,28.22 -2.61,31.67 -3.57,35.12 -3.50,35.82 -3.42,36.51 -3.51,36.73 -3.59,36.94 -3.72,37.13 -3.86,37.31 -4.03,37.46 -4.20,37.61 -4.41,37.72 -4.61,37.82 -4.84,37.87 -5.06,37.93 -5.29,37.92 -5.52,37.92 -5.74,37.86 -5.96,37.81 -6.16,37.70 -6.37,37.59 -6.54,37.44 -6.71,37.28 -6.83,37.09 -6.96,36.90 -7.04,36.69 -7.12,36.47 -7.14,36.24 -7.17,36.01 -7.14,35.79 -7.11,35.56 -6.32,34.28 -5.53,33.00 -4.89,31.42 -4.26,29.84 -3.41,27.54 -2.56,25.25 -1.48,22.51 -0.41,19.78 0.75,16.88 1.91,13.99 2.96,11.33 4.01,8.66 4.86,6.38 5.71,4.10 6.90,1.31 8.10,-1.46 8.89,-3.21 9.68,-4.95 10.15,-5.99 10.62,-7.03 10.96,-7.61 11.30,-8.19 11.45,-8.44 11.61,-8.68 11.82,-8.88 12.03,-9.08 12.29,-9.23 12.54,-9.37 12.82,-9.45 13.10,-9.53 13.39,-9.54 13.68,-9.55 13.97,-9.49 14.25,-9.43 14.52,-9.30 14.78,-9.18 15.00,-8.99 15.23,-8.81 15.40,-8.57 15.57,-8.34 15.69,-8.07 15.80,-7.80 15.85,-7.51 15.89,-7.23 15.87,-6.94 15.84,-6.65 15.75,-6.37 15.65,-6.09 15.50,-4.63 15.35,-3.18 14.98,-1.49 14.61,0.18 14.01,2.37 13.41,4.55 11.98,8.96 10.56,13.36 9.05,18.59 7.54,23.82 5.93,28.92 4.33,34.03 3.31,37.72 2.29,41.41 1.98,42.70 1.68,44.00 1.60,44.21 1.52,44.42 1.39,44.61 1.26,44.79 1.09,44.94 0.93,45.09 0.73,45.20 0.53,45.31 0.31,45.36 0.09,45.41 -0.13,45.41 -0.35,45.42 -0.57,45.36 -0.79,45.31 -0.99,45.20 -1.19,45.10 -1.36,44.95 -1.53,44.80 -1.66,44.62 -1.79,44.43 -1.87,44.22 -1.95,44.01 -1.97,43.79 -2.00,43.56 -1.98,43.34 -1.95,43.11 -1.36,41.89 -0.77,40.66 -0.05,38.55 0.66,36.44 1.47,33.69 2.28,30.95 3.49,27.69 4.70,24.43 6.08,21.04 7.46,17.65 8.75,14.49 10.05,11.32 11.17,8.55 12.28,5.77 13.34,3.39 14.39,1.01 15.08,-0.79 15.77,-2.61 16.65,-4.51 17.53,-6.41 18.08,-7.39 18.62,-8.38 18.82,-8.63 19.02,-8.87 19.20,-9.11 19.38,-9.35 19.61,-9.54 19.84,-9.73 20.11,-9.86 20.38,-9.99 20.67,-10.05 20.96,-10.11 21.26,-10.10 21.56,-10.08 21.85,-10.00 22.14,-9.92 22.39,-9.77 22.65,-9.62 22.87,-9.42 23.08,-9.21 23.24,-8.96 23.40,-8.70 23.50,-8.42 23.59,-8.14 23.62,-7.84 23.64,-7.54 23.60,-7.25 23.55,-6.95 23.43,-6.68 23.32,-6.40 23.14,-4.58 22.96,-2.75 22.55,-1.06 22.13,0.62 21.50,2.70 20.88,4.77 20.19,7.18 19.50,9.60 18.16,13.81 16.81,18.03 15.02,23.12 13.23,28.21 11.54,32.66 9.85,37.11 9.08,39.40 8.31,41.70 8.20,41.91 8.10,42.11 7.95,42.29 7.80,42.47 7.61,42.60 7.42,42.74 7.21,42.83 6.99,42.91 6.76,42.95 6.53,42.98 6.30,42.96 6.07,42.93 5.85,42.86 5.63,42.78 5.44,42.65 5.24,42.52 5.09,42.35 4.93,42.18 4.82,41.98 4.70,41.77 4.64,41.55 4.58,41.33 4.58,41.09 4.57,40.86 4.62,40.63 4.68,40.41 5.94,38.37 7.20,36.33 8.04,34.30 8.87,32.27 9.77,29.95 10.68,27.63 11.58,25.07 12.49,22.50 13.42,19.57 14.34,16.64 15.30,13.77 16.26,10.90 17.24,8.09 18.21,5.29 19.20,2.51 20.18,-0.25 21.20,-2.65 22.22,-5.04 23.36,-7.75 24.50,-10.46 25.33,-12.02 26.16,-13.58 26.47,-13.90 26.78,-14.21 26.96,-14.46 27.13,-14.71 27.36,-14.91 27.59,-15.11 27.86,-15.25 28.14,-15.38 28.43,-15.45 28.73,-15.52 29.03,-15.52 29.34,-15.52 29.63,-15.44 29.93,-15.37 30.20,-15.22 30.46,-15.08 30.69,-14.88 30.92,-14.67 31.09,-14.42 31.26,-14.17 31.36,-13.88 31.47,-13.60 31.50,-13.29 31.53,-12.99 31.49,-12.69 31.46,-12.39 31.34,-12.10 31.23,-11.82 30.85,-9.94 30.47,-8.06 29.11,-3.91 27.75,0.22 25.86,6.24 23.97,12.25 21.65,19.26 19.34,26.26 17.42,32.08 15.50,37.89 15.23,39.78 14.96,41.68 14.87,41.87 14.78,42.07 14.65,42.23 14.52,42.40 14.36,42.53 14.19,42.66 14.00,42.75 13.81,42.84 13.60,42.88 13.39,42.91 13.18,42.90 12.97,42.89 12.77,42.83 12.56,42.77 12.38,42.66 12.20,42.55 12.05,42.40 11.90,42.25 11.79,42.07 11.68,41.89 11.62,41.69 11.56,41.48 11.54,41.27 11.53,41.06 11.57,40.85 11.60,40.65 12.28,39.79 12.96,38.93 13.66,37.10 14.36,35.27 15.25,32.70 16.13,30.13 18.32,24.36 20.50,18.58 22.44,13.83 24.39,9.07 26.21,4.99 28.04,0.92 29.53,-2.25 31.01,-5.43 32.03,-7.88 33.06,-10.33 33.95,-12.19 34.84,-14.04 35.31,-15.18 35.78,-16.31 36.93,-17.49 38.08,-18.66 37.47,-18.26 36.87,-17.87 37.06,-18.13 37.26,-18.40 37.51,-18.61 37.77,-18.83 38.07,-18.97 38.37,-19.12 38.69,-19.19 39.01,-19.26 39.35,-19.25 39.68,-19.24 40.00,-19.15 40.32,-19.06 40.61,-18.90 40.90,-18.73 41.14,-18.51 41.38,-18.28 41.56,-18.00 41.74,-17.72 41.85,-17.41 41.96,-17.09 41.99,-16.76 42.02,-16.43 41.97,-16.10 41.92,-15.77 41.79,-15.47 41.67,-15.16 41.63,-14.06 41.59,-12.95 41.20,-10.91 40.80,-8.87 40.18,-6.63 39.56,-4.40 38.42,-0.21 37.28,3.97 35.59,9.11 33.89,14.26 32.11,19.42 30.33,24.59 28.95,29.02 27.56,33.46 27.06,35.62 26.55,37.79 26.68,38.25 26.81,38.72 26.74,38.95 26.67,39.18 26.55,39.39 26.43,39.60 26.25,39.77 26.08,39.95 25.88,40.08 25.67,40.20 25.44,40.28 25.21,40.35 24.97,40.37 24.72,40.39 24.48,40.34 24.24,40.30 24.02,40.21 23.80,40.11 23.61,39.96 23.41,39.81 23.26,39.62 23.11,39.43 23.01,39.21 22.91,38.99 22.86,38.75 22.81,38.51 22.83,38.27 22.84,38.03 23.42,36.85 24.00,35.68 24.70,34.09 25.40,32.51 26.24,30.39 27.08,28.27 28.29,25.57 29.50,22.87 30.67,19.79 31.85,16.71 33.77,11.76 35.70,6.82 37.11,3.29 38.51,-0.23 39.53,-2.88 40.56,-5.52 41.58,-7.97 42.60,-10.42 43.21,-11.67 43.81,-12.91 44.05,-13.27 44.29,-13.62 44.46,-13.88 44.63,-14.15 44.86,-14.36 45.09,-14.58 45.37,-14.73 45.64,-14.89 45.94,-14.97 46.25,-15.05 46.56,-15.06 46.88,-15.07 47.18,-15.01 47.49,-14.94 47.78,-14.80 48.06,-14.66 48.30,-14.46 48.54,-14.26 48.73,-14.00 48.91,-13.75 49.03,-13.46 49.15,-13.17 49.20,-12.85 49.25,-12.54 49.22,-12.23 49.19,-11.92 49.08,-11.62 48.98,-11.32 48.52,-8.32 48.05,-5.32 47.32,-2.71 46.59,-0.10 45.69,3.00 44.79,6.11 43.53,9.92 42.26,13.73 41.01,17.62 39.76,21.50 38.50,25.32 37.25,29.14 36.14,32.49 35.03,35.84 34.29,38.38 33.54,40.91 33.09,42.80 32.65,44.69 32.33,45.74 32.01,46.79 30.73,46.39 29.46,46.00 30.25,44.93 31.05,43.85 31.83,42.46 32.62,41.07 33.51,39.08 34.41,37.09 35.36,34.68 36.31,32.26 37.29,29.64 38.26,27.03 39.39,24.03 40.51,21.03 42.55,16.24 44.60,11.45 45.87,8.30 47.15,5.16 48.15,3.03 49.15,0.90 49.88,-0.46 50.60,-1.84 51.53,-2.89 52.46,-3.94 54.61,-3.19 56.77,-2.44 56.69,0.07 56.61,2.59 56.05,4.68 55.50,6.78 54.26,10.97 53.02,15.16 51.92,18.80 50.81,22.44 49.77,25.73 48.72,29.02 47.57,33.09 46.41,37.16 45.75,40.37 45.09,43.58 44.74,45.41 44.38,47.24 44.29,47.53 44.20,47.82 44.04,48.08 43.88,48.34 43.66,48.55 43.44,48.77 43.18,48.92 42.92,49.08 42.62,49.17 42.33,49.26 42.03,49.27 41.72,49.29 41.42,49.23 41.12,49.17 40.85,49.05 40.57,48.92 40.33,48.73 40.09,48.54 39.91,48.30 39.72,48.06 39.60,47.78 39.47,47.50 39.42,47.20 39.37,46.90 39.39,46.59 39.41,46.29 40.82,45.10 42.23,43.91 43.75,41.29 45.28,38.66 46.59,36.15 47.90,33.65 49.32,30.85 50.73,28.05 52.02,25.17 53.31,22.30 54.41,19.52 55.50,16.73 56.55,14.33 57.60,11.92 58.30,10.21 59.00,8.50 59.35,7.25 59.70,6.01 59.86,5.58 60.03,5.16 60.18,4.86 60.33,4.55 60.55,4.29 60.77,4.02 61.05,3.82 61.32,3.62 61.64,3.49 61.96,3.36 62.30,3.31 62.64,3.26 62.98,3.30 63.32,3.33 63.64,3.44 63.96,3.55 64.25,3.74 64.54,3.93 64.77,4.18 65.00,4.43 65.17,4.73 65.34,5.03 65.43,5.36 65.52,5.69 65.53,6.03 65.54,6.37 65.46,6.71 65.39,7.04 65.07,8.43 64.74,9.81 64.34,11.35 63.94,12.89 63.32,14.92 62.70,16.95 62.02,19.46 61.34,21.97 60.46,24.96 59.58,27.95 58.63,31.08 57.69,34.22 56.41,38.29 55.13,42.35 54.55,44.97 53.98,47.58 54.43,48.64 54.88,49.70 54.79,50.01 54.69,50.31 54.53,50.58 54.36,50.86 54.14,51.09 53.91,51.31 53.64,51.48 53.37,51.65 53.07,51.74 52.76,51.84 52.44,51.86 52.12,51.88 51.81,51.83 51.49,51.77 51.20,51.64 50.91,51.51 50.66,51.31 50.41,51.12 50.21,50.87 50.01,50.62 49.88,50.33 49.74,50.04 49.69,49.72 49.63,49.41 49.64,49.09 49.66,48.77 51.49,47.18 53.31,45.59 55.87,43.28 58.43,40.96 58.59,40.82 58.74,40.68 58.94,40.60 59.14,40.51 59.35,40.50 59.56,40.48 59.76,40.53 59.97,40.58 60.15,40.70 60.33,40.81 60.46,40.98 60.59,41.15 60.67,41.35 60.74,41.55 60.74,41.76 60.75,41.97 60.69,42.17 60.62,42.38 60.50,42.55 60.37,42.72 60.20,42.84 60.03,42.97 59.82,43.03 59.62,43.09 59.41,43.08 59.20,43.08 59.00,43.00 58.80,42.93 58.63,42.80 58.47,42.66 58.35,42.48 58.24,42.30 58.19,42.10 58.14,41.89 58.16,41.68 58.17,41.47 58.26,41.27 58.34,41.08 58.49,40.92 58.63,40.76 58.81,40.66 59.00,40.55 59.21,40.52 59.42,40.48 59.63,40.51 59.84,40.53 60.03,40.63 60.22,40.73 60.37,40.88 60.52,41.03 60.61,41.22 60.70,41.41 60.73,41.62 60.76,41.83 60.72,42.04 60.68,42.25 60.57,42.43 60.47,42.62 60.47,42.62 60.47,42.62 57.67,46.16 54.88,49.70 54.79,50.00 54.69,50.31 54.53,50.58 54.36,50.86 54.14,51.09 53.91,51.31 53.64,51.48 53.37,51.65 53.07,51.74 52.76,51.84 52.44,51.86 52.12,51.88 51.81,51.83 51.49,51.77 51.20,51.64 50.91,51.51 50.66,51.31 50.41,51.12 50.21,50.87 50.01,50.62 49.88,50.33 49.74,50.04 49.69,49.72 49.63,49.41 49.64,49.09 49.66,48.77 49.13,48.13 48.60,47.48 49.10,44.06 49.60,40.64 50.85,36.58 52.09,32.53 53.04,29.41 53.98,26.30 54.83,23.37 55.69,20.45 56.39,17.83 57.10,15.22 57.70,13.31 58.29,11.40 58.73,9.76 59.17,8.12 59.60,6.64 60.03,5.16 60.18,4.86 60.33,4.55 60.55,4.29 60.77,4.02 61.05,3.82 61.32,3.62 61.64,3.49 61.96,3.36 62.30,3.31 62.64,3.26 62.98,3.30 63.32,3.33 63.64,3.44 63.96,3.55 64.25,3.74 64.54,3.93 64.77,4.18 65.00,4.43 65.17,4.73 65.34,5.03 65.43,5.36 65.52,5.69 65.53,6.03 65.54,6.37 65.46,6.71 65.39,7.04 65.16,7.44 64.94,7.84 64.37,9.20 63.81,10.57 63.03,12.29 62.26,14.02 61.19,16.31 60.13,18.60 58.94,21.46 57.76,24.32 56.40,27.28 55.04,30.24 53.60,33.05 52.16,35.87 50.81,38.45 49.46,41.04 48.28,43.11 47.10,45.18 45.74,46.21 44.38,47.24 44.29,47.53 44.20,47.82 44.04,48.08 43.88,48.34 43.66,48.55 43.44,48.77 43.18,48.92 42.92,49.08 42.62,49.17 42.33,49.26 42.03,49.27 41.72,49.29 41.42,49.23 41.12,49.17 40.85,49.05 40.57,48.92 40.33,48.73 40.09,48.54 39.91,48.30 39.72,48.06 39.60,47.78 39.47,47.50 39.42,47.20 39.37,46.90 39.39,46.59 39.41,46.29 39.60,44.42 39.78,42.56 40.40,39.10 41.01,35.64 42.18,31.47 43.35,27.31 44.39,24.06 45.43,20.81 46.53,17.18 47.62,13.55 48.85,9.43 50.08,5.32 50.61,3.42 51.13,1.53 51.40,0.00 51.66,-1.53 53.48,-0.41 55.30,0.70 54.61,1.94 53.92,3.18 52.94,5.17 51.97,7.16 50.63,10.33 49.29,13.50 47.20,18.14 45.11,22.79 43.96,25.76 42.80,28.74 41.80,31.38 40.79,34.03 39.80,36.55 38.80,39.07 37.81,41.26 36.82,43.44 35.88,45.11 34.94,46.78 33.22,48.34 31.51,49.90 29.54,48.76 27.57,47.62 27.64,45.57 27.72,43.52 28.20,41.50 28.69,39.48 29.46,36.87 30.22,34.25 31.33,30.91 32.43,27.57 33.67,23.76 34.91,19.96 36.15,16.04 37.38,12.13 38.59,8.41 39.80,4.69 40.66,1.59 41.53,-1.51 42.23,-4.06 42.93,-6.61 43.59,-8.78 44.26,-10.96 44.27,-12.29 44.29,-13.62 44.46,-13.88 44.63,-14.15 44.86,-14.36 45.09,-14.58 45.37,-14.73 45.64,-14.89 45.94,-14.97 46.25,-15.05 46.56,-15.06 46.88,-15.07 47.18,-15.01 47.49,-14.94 47.78,-14.80 48.06,-14.66 48.30,-14.46 48.54,-14.26 48.73,-14.00 48.91,-13.75 49.03,-13.46 49.15,-13.17 49.20,-12.85 49.25,-12.54 49.22,-12.23 49.19,-11.92 49.08,-11.62 48.98,-11.32 48.73,-10.97 48.48,-10.61 47.94,-9.51 47.39,-8.41 46.39,-6.03 45.39,-3.64 44.35,-0.98 43.31,1.67 41.89,5.20 40.47,8.73 38.46,13.63 36.45,18.54 35.13,21.72 33.80,24.91 32.52,27.47 31.23,30.03 30.26,32.19 29.28,34.35 28.05,36.53 26.81,38.72 26.74,38.95 26.67,39.18 26.55,39.39 26.43,39.60 26.26,39.77 26.08,39.95 25.88,40.08 25.67,40.20 25.44,40.28 25.21,40.35 24.97,40.37 24.72,40.39 24.48,40.34 24.24,40.30 24.02,40.21 23.80,40.11 23.61,39.96 23.41,39.81 23.26,39.62 23.11,39.43 23.01,39.21 22.91,38.99 22.86,38.75 22.81,38.51 22.83,38.27 22.84,38.03 22.74,37.65 22.64,37.27 22.95,34.74 23.26,32.22 24.47,27.64 25.68,23.07 27.29,17.87 28.90,12.67 30.45,7.62 32.01,2.57 33.10,-1.66 34.19,-5.89 34.75,-7.91 35.32,-9.94 35.69,-11.83 36.06,-13.73 36.46,-15.80 36.87,-17.86 37.06,-18.13 37.26,-18.40 37.51,-18.61 37.77,-18.83 38.07,-18.97 38.37,-19.12 38.69,-19.19 39.01,-19.26 39.35,-19.25 39.68,-19.24 40.00,-19.15 40.32,-19.06 40.61,-18.90 40.90,-18.73 41.14,-18.51 41.38,-18.28 41.56,-18.00 41.74,-17.72 41.85,-17.41 41.96,-17.09 41.99,-16.76 42.02,-16.43 41.97,-16.10 41.92,-15.77 41.79,-15.47 41.67,-15.16 41.17,-14.66 40.67,-14.17 40.10,-12.94 39.53,-11.70 38.65,-10.00 37.77,-8.30 36.65,-5.78 35.54,-3.26 34.01,-0.15 32.49,2.96 30.63,6.93 28.76,10.90 26.75,15.59 24.74,20.28 22.37,25.92 19.99,31.57 18.94,34.21 17.88,36.85 16.42,39.26 14.96,41.68 14.87,41.87 14.78,42.07 14.65,42.23 14.52,42.40 14.36,42.53 14.19,42.66 14.00,42.75 13.81,42.84 13.60,42.88 13.39,42.91 13.18,42.90 12.97,42.89 12.77,42.83 12.57,42.77 12.38,42.66 12.20,42.55 12.05,42.40 11.90,42.25 11.79,42.07 11.68,41.89 11.62,41.69 11.56,41.48 11.54,41.27 11.53,41.06 11.57,40.85 11.60,40.65 11.72,38.71 11.84,36.78 13.53,30.87 15.22,24.96 17.35,17.92 19.48,10.88 21.28,4.81 23.08,-1.26 24.32,-5.25 25.56,-9.24 25.90,-10.66 26.24,-12.07 26.51,-13.14 26.78,-14.21 26.96,-14.46 27.13,-14.71 27.36,-14.91 27.59,-15.11 27.86,-15.25 28.14,-15.38 28.43,-15.45 28.73,-15.52 29.03,-15.52 29.34,-15.52 29.63,-15.44 29.93,-15.37 30.19,-15.22 30.46,-15.08 30.69,-14.88 30.91,-14.67 31.09,-14.42 31.26,-14.17 31.36,-13.88 31.47,-13.60 31.50,-13.29 31.53,-12.99 31.49,-12.69 31.46,-12.39 31.34,-12.10 31.23,-11.82 30.89,-11.49 30.55,-11.15 29.83,-9.83 29.11,-8.51 27.96,-5.79 26.81,-3.07 25.83,-0.82 24.85,1.43 23.84,4.19 22.83,6.94 21.80,9.71 20.78,12.48 19.75,15.29 18.72,18.10 17.66,21.09 16.60,24.07 15.54,26.64 14.49,29.21 13.48,31.52 12.46,33.83 11.51,35.94 10.55,38.04 9.43,39.87 8.31,41.70 8.20,41.91 8.10,42.11 7.95,42.29 7.80,42.47 7.61,42.60 7.42,42.74 7.21,42.83 6.99,42.91 6.76,42.95 6.53,42.98 6.30,42.96 6.07,42.93 5.85,42.86 5.63,42.78 5.44,42.65 5.24,42.52 5.09,42.35 4.93,42.18 4.82,41.98 4.70,41.77 4.64,41.55 4.58,41.33 4.58,41.09 4.57,40.86 4.62,40.63 4.68,40.41 5.25,38.05 5.83,35.68 7.31,31.21 8.79,26.73 10.41,21.64 12.02,16.55 13.28,12.37 14.54,8.19 15.23,5.73 15.93,3.26 16.53,1.31 17.13,-0.63 17.57,-2.33 18.01,-4.03 18.54,-5.23 19.07,-6.42 19.05,-7.65 19.02,-8.87 19.20,-9.11 19.38,-9.35 19.61,-9.54 19.84,-9.73 20.11,-9.86 20.38,-9.99 20.67,-10.05 20.96,-10.11 21.26,-10.10 21.56,-10.08 21.85,-10.00 22.13,-9.92 22.39,-9.77 22.65,-9.62 22.87,-9.42 23.08,-9.21 23.24,-8.96 23.40,-8.70 23.50,-8.42 23.59,-8.14 23.62,-7.84 23.64,-7.54 23.60,-7.25 23.55,-6.95 23.43,-6.68 23.32,-6.40 22.57,-5.34 21.83,-4.28 20.94,-2.59 20.04,-0.91 19.26,0.98 18.48,2.87 17.42,5.15 16.36,7.43 15.22,10.21 14.07,12.99 12.75,16.14 11.42,19.29 10.02,22.62 8.62,25.96 7.36,29.07 6.09,32.17 5.13,34.93 4.17,37.68 3.43,39.72 2.69,41.75 2.18,42.88 1.68,44.00 1.60,44.21 1.52,44.42 1.39,44.61 1.26,44.79 1.09,44.94 0.93,45.09 0.73,45.20 0.53,45.31 0.31,45.36 0.09,45.41 -0.13,45.41 -0.35,45.42 -0.57,45.36 -0.79,45.31 -0.99,45.20 -1.19,45.10 -1.36,44.95 -1.53,44.80 -1.66,44.62 -1.79,44.43 -1.87,44.22 -1.95,44.01 -1.97,43.79 -2.00,43.56 -1.98,43.34 -1.95,43.11 -1.76,41.79 -1.58,40.46 -0.76,36.63 0.04,32.80 1.40,27.65 2.76,22.50 4.17,17.13 5.58,11.76 6.95,7.45 8.33,3.15 8.91,1.08 9.49,-0.98 9.87,-2.55 10.24,-4.11 10.77,-6.15 11.30,-8.19 11.45,-8.44 11.61,-8.68 11.82,-8.88 12.03,-9.08 12.29,-9.23 12.54,-9.37 12.82,-9.45 13.10,-9.53 13.39,-9.54 13.68,-9.55 13.97,-9.49 14.25,-9.43 14.51,-9.31 14.78,-9.18 15.00,-8.99 15.23,-8.81 15.40,-8.57 15.57,-8.34 15.69,-8.07 15.80,-7.80 15.85,-7.51 15.89,-7.23 15.87,-6.94 15.84,-6.65 15.75,-6.37 15.65,-6.09 15.29,-5.52 14.93,-4.95 14.41,-3.95 13.90,-2.95 13.06,-1.26 12.22,0.43 10.94,3.03 9.66,5.64 8.73,7.92 7.80,10.19 6.69,12.85 5.58,15.50 4.38,18.36 3.18,21.22 2.08,23.91 0.97,26.59 0.07,28.92 -0.83,31.25 -2.13,33.88 -3.42,36.51 -3.51,36.73 -3.59,36.94 -3.72,37.13 -3.86,37.31 -4.03,37.46 -4.20,37.61 -4.41,37.72 -4.61,37.82 -4.84,37.87 -5.06,37.93 -5.29,37.92 -5.52,37.92 -5.74,37.86 -5.96,37.81 -6.16,37.70 -6.37,37.59 -6.54,37.44 -6.71,37.28 -6.83,37.09 -6.96,36.90 -7.04,36.69 -7.12,36.47 -7.14,36.24 -7.17,36.01 -7.14,35.79 -7.11,35.56 -7.40,34.96 -7.70,34.36 -6.82,30.70 -5.95,27.03 -5.13,24.04 -4.30,21.06 -3.42,18.19 -2.54,15.33 -1.78,12.54 -1.02,9.74 -0.25,7.30 0.51,4.86 1.27,2.61 2.03,0.36 2.53,-1.40 3.02,-3.17 3.48,-4.50 3.93,-5.83 4.37,-6.92 4.81,-8.02 4.93,-8.24 5.05,-8.47 5.23,-8.67 5.40,-8.86 5.61,-9.00 5.83,-9.15 6.07,-9.24 6.32,-9.33 6.57,-9.36 6.83,-9.39 7.09,-9.35 7.34,-9.32 7.59,-9.22 7.83,-9.13 8.04,-8.98 8.25,-8.83 8.42,-8.64 8.59,-8.44 8.71,-8.21 8.83,-7.98 8.89,-7.73 8.95,-7.48 8.95,-7.22 8.94,-6.96 8.88,-6.71 8.81,-6.45 8.28,-5.63 7.75,-4.81 7.31,-3.69 6.88,-2.56 6.38,-1.42 5.87,-0.28 5.40,1.15 4.92,2.59 4.47,4.48 4.02,6.37 3.34,8.72 2.67,11.07 1.78,13.86 0.89,16.65 0.20,18.39 -0.49,20.13 -0.54,20.32 -0.59,20.50 -0.68,20.66 -0.77,20.83 -0.90,20.97 -1.03,21.11 -1.19,21.21 -1.35,21.31 -1.53,21.38 -1.71,21.44 -1.90,21.46 -2.09,21.47 -2.27,21.45 -2.46,21.42 -2.64,21.35 -2.81,21.27 -2.97,21.16 -3.12,21.05 -3.24,20.90 -3.36,20.76 -3.45,20.59 -3.53,20.42 -3.57,20.23 -3.61,20.05 -3.61,19.86 -3.60,19.67 -3.68,18.92 -3.76,18.18 -3.55,16.45 -3.35,14.73 -3.12,12.29 -2.90,9.85 -2.64,7.65 -2.37,5.44 -2.31,4.06 -2.25,2.67 -1.83,1.26 -1.41,-0.14 -1.37,-0.30 -1.33,-0.47 -1.25,-0.62 -1.18,-0.78 -1.07,-0.91 -0.96,-1.04 -0.82,-1.14 -0.68,-1.24 -0.52,-1.30 -0.36,-1.36 -0.19,-1.39 -0.02,-1.41 0.14,-1.39 0.31,-1.38 0.47,-1.32 0.63,-1.26 0.77,-1.17 0.91,-1.08 1.03,-0.95 1.14,-0.82 1.23,-0.67 1.31,-0.53 1.35,-0.36 1.40,-0.20 1.40,-0.02 1.40,0.14 1.41,0.14 L 1.41,0.14 Z"/></g><g stroke-opacity="0.4" fill-opacity="0.4" transform="translate(200.00953719101256 328.5) rotate(0 31 24.5)" stroke="none"><path fill="#5c940d" d="M 1.39,0.46 Q 1.39,0.46 1.42,1.43 1.46,2.39 1.35,3.83 1.24,5.27 1.21,7.31 1.18,9.35 1.18,10.68 1.18,12.02 1.32,14.54 1.45,17.06 1.50,19.19 1.56,21.32 1.58,22.95 1.60,24.58 1.75,26.04 1.89,27.49 1.95,28.93 2.01,30.36 2.17,31.89 2.33,33.42 2.53,35.08 2.74,36.74 2.83,38.54 2.92,40.34 3.05,43.66 3.18,46.98 3.25,49.13 3.32,51.28 3.34,52.62 3.37,53.97 3.60,55.48 3.82,56.99 4.91,57.36 6.00,57.73 7.08,58.08 8.15,58.44 10.12,58.85 12.09,59.25 13.21,59.34 14.34,59.42 15.55,59.32 16.76,59.22 18.14,59.04 19.53,58.86 20.71,58.53 21.88,58.20 23.50,58.00 25.12,57.81 26.39,57.61 27.66,57.41 29.19,57.30 30.73,57.19 32.13,57.01 33.52,56.82 35.10,56.73 36.67,56.64 38.85,56.46 41.03,56.28 42.62,56.07 44.22,55.86 45.76,55.63 47.30,55.39 48.54,55.04 49.78,54.68 51.47,54.34 53.16,54.01 54.84,53.81 56.51,53.61 57.65,53.80 58.79,53.98 60.07,53.43 61.36,52.89 60.87,51.76 60.37,50.64 60.36,49.53 60.35,48.43 60.34,46.86 60.33,45.28 60.32,44.05 60.31,42.82 60.30,41.43 60.30,40.04 60.29,38.59 60.28,37.14 60.27,35.66 60.27,34.18 60.26,31.68 60.25,29.19 60.25,26.98 60.24,24.76 60.24,22.67 60.23,20.58 60.23,18.69 60.22,16.80 60.22,15.27 60.22,13.75 60.22,12.38 60.22,11.02 60.08,9.87 59.94,8.72 59.86,7.37 59.79,6.01 59.74,3.98 59.70,1.96 59.68,0.53 59.66,-0.88 59.65,-2.06 59.64,-3.24 59.63,-5.01 59.62,-6.77 59.62,-8.11 59.62,-9.46 59.88,-10.80 60.14,-12.14 60.14,-12.42 60.15,-12.71 60.26,-13.03 60.37,-13.36 60.56,-13.65 60.75,-13.94 61.00,-14.18 61.25,-14.42 61.55,-14.59 61.86,-14.76 62.19,-14.85 62.52,-14.95 62.87,-14.96 63.22,-14.97 63.56,-14.89 63.89,-14.82 64.21,-14.67 64.52,-14.52 64.78,-14.30 65.05,-14.07 65.26,-13.80 65.46,-13.52 65.59,-13.20 65.73,-12.88 65.78,-12.53 65.83,-12.19 65.80,-11.85 65.77,-11.50 64.56,-10.37 63.34,-9.24 61.64,-9.52 59.93,-9.79 58.87,-9.89 57.81,-9.98 56.34,-9.69 54.87,-9.39 53.77,-9.15 52.67,-8.90 51.49,-8.65 50.32,-8.40 49.10,-8.15 47.88,-7.90 45.51,-7.64 43.13,-7.38 41.12,-7.40 39.11,-7.43 37.36,-7.60 35.62,-7.77 33.75,-7.98 31.88,-8.20 29.81,-8.44 27.73,-8.67 25.65,-8.77 23.58,-8.86 21.35,-8.76 19.12,-8.66 17.06,-8.22 15.01,-7.78 13.18,-6.97 11.35,-6.15 9.04,-4.17 6.72,-2.19 4.24,-0.99 1.75,0.19 1.57,0.31 1.39,0.42 1.18,0.47 0.98,0.52 0.77,0.50 0.55,0.48 0.36,0.40 0.16,0.31 0.01,0.17 -0.14,0.03 -0.24,-0.15 -0.35,-0.33 -0.39,-0.54 -0.43,-0.75 -0.40,-0.96 -0.37,-1.17 -0.27,-1.36 -0.18,-1.55 -0.02,-1.70 0.12,-1.85 0.31,-1.94 0.50,-2.04 0.71,-2.06 0.92,-2.09 1.13,-2.05 1.34,-2.01 1.52,-1.90 1.71,-1.80 1.85,-1.64 1.99,-1.48 2.07,-1.29 2.15,-1.09 2.17,-0.88 2.19,-0.67 2.13,-0.46 2.08,-0.25 1.97,-0.08 1.85,0.09 1.68,0.23 1.52,0.36 1.32,0.43 1.12,0.50 0.91,0.51 0.69,0.51 0.49,0.45 0.29,0.38 0.12,0.26 -0.05,0.13 -0.17,-0.03 -0.29,-0.20 -0.35,-0.40 -0.41,-0.61 -0.41,-0.82 -0.40,-1.03 -0.33,-1.23 -0.25,-1.43 -0.12,-1.60 0.01,-1.76 0.01,-1.76 0.01,-1.76 1.52,-4.12 3.04,-6.48 5.98,-9.02 8.93,-11.56 11.35,-12.58 13.78,-13.61 16.32,-14.12 18.85,-14.63 21.35,-14.73 23.85,-14.84 26.12,-14.73 28.40,-14.62 30.48,-14.39 32.56,-14.16 34.38,-13.96 36.20,-13.75 37.72,-13.60 39.24,-13.44 40.86,-13.40 42.48,-13.35 44.58,-13.58 46.68,-13.81 47.89,-14.06 49.09,-14.30 50.23,-14.54 51.36,-14.77 53.17,-15.20 54.98,-15.62 56.79,-15.72 58.60,-15.81 60.32,-15.33 62.04,-14.84 61.09,-13.77 60.15,-12.71 60.26,-13.03 60.37,-13.36 60.56,-13.65 60.75,-13.94 61.00,-14.18 61.25,-14.42 61.55,-14.59 61.86,-14.76 62.19,-14.85 62.52,-14.95 62.87,-14.96 63.22,-14.97 63.56,-14.89 63.89,-14.82 64.21,-14.67 64.52,-14.52 64.78,-14.30 65.05,-14.07 65.26,-13.80 65.46,-13.52 65.59,-13.20 65.73,-12.88 65.78,-12.53 65.83,-12.19 65.80,-11.85 65.77,-11.50 65.57,-10.48 65.37,-9.46 65.37,-8.12 65.37,-6.78 65.37,-5.02 65.37,-3.27 65.37,-2.10 65.37,-0.92 65.37,0.47 65.37,1.88 65.38,3.81 65.38,5.74 65.43,6.92 65.48,8.11 65.62,9.56 65.77,11.01 65.77,12.38 65.77,13.75 65.77,15.27 65.77,16.80 65.76,18.69 65.76,20.58 65.75,22.67 65.75,24.76 65.74,26.98 65.74,29.19 65.73,31.68 65.72,34.18 65.72,35.66 65.71,37.14 65.70,38.59 65.69,40.04 65.69,41.43 65.68,42.82 65.66,44.92 65.65,47.03 65.64,48.37 65.63,49.70 65.59,51.00 65.55,52.29 65.48,53.55 65.40,54.80 64.34,55.77 63.27,56.75 62.27,57.64 61.27,58.54 60.14,58.75 59.02,58.97 57.93,58.76 56.84,58.54 55.48,58.72 54.11,58.89 52.61,59.18 51.12,59.46 49.58,59.88 48.05,60.30 46.46,60.54 44.87,60.78 43.14,61.00 41.42,61.23 39.17,61.40 36.93,61.58 35.53,61.64 34.13,61.70 32.58,61.88 31.04,62.07 29.73,62.13 28.41,62.20 27.03,62.42 25.64,62.64 24.40,62.76 23.16,62.88 21.66,63.28 20.16,63.68 18.63,63.87 17.11,64.07 15.53,64.17 13.95,64.27 12.57,64.15 11.19,64.03 9.88,63.78 8.56,63.53 7.49,63.27 6.42,63.01 5.34,62.67 4.27,62.33 2.92,61.77 1.56,61.21 0.68,60.04 -0.20,58.88 -0.17,57.60 -0.14,56.32 -0.30,55.19 -0.47,54.07 -0.51,52.74 -0.55,51.42 -0.63,49.31 -0.72,47.20 -0.96,43.88 -1.20,40.56 -1.29,38.92 -1.38,37.27 -1.61,35.57 -1.83,33.87 -2.02,32.21 -2.21,30.56 -2.28,29.24 -2.35,27.92 -2.51,26.28 -2.68,24.65 -2.71,23.05 -2.74,21.45 -2.80,19.37 -2.87,17.30 -3.02,14.65 -3.17,12.00 -3.16,10.66 -3.15,9.31 -3.12,7.17 -3.08,5.02 -2.84,3.03 -2.61,1.05 -2.00,0.29 -1.39,-0.46 -1.31,-0.62 -1.24,-0.78 -1.12,-0.92 -1.01,-1.05 -0.87,-1.16 -0.73,-1.27 -0.57,-1.34 -0.40,-1.41 -0.23,-1.43 -0.05,-1.46 0.11,-1.45 0.29,-1.43 0.46,-1.38 0.62,-1.32 0.77,-1.23 0.92,-1.13 1.05,-1.01 1.17,-0.88 1.26,-0.72 1.35,-0.57 1.40,-0.40 1.44,-0.23 1.45,-0.05 1.46,0.11 1.42,0.29 1.39,0.46 1.39,0.46 L 1.39,0.46 Z"/></g><g stroke-opacity="0.4" fill-opacity="0.4" transform="translate(201.00953719101256 332) rotate(0 29.25 24.75)" stroke="none"><path fill="#5c940d" d="M 1.10,0.88 Q 1.10,0.88 0.75,1.78 0.40,2.68 0.33,2.86 0.25,3.04 0.07,3.21 -0.10,3.39 -0.31,3.51 -0.52,3.64 -0.76,3.71 -1.00,3.78 -1.24,3.79 -1.49,3.81 -1.73,3.76 -1.98,3.71 -2.20,3.61 -2.43,3.50 -2.62,3.35 -2.81,3.19 -2.96,3.00 -3.12,2.80 -3.22,2.57 -3.31,2.35 -3.36,2.10 -3.40,1.86 -3.38,1.61 -3.36,1.36 -3.29,1.13 -3.21,0.89 -3.08,0.68 -2.95,0.47 -2.46,-0.86 -1.96,-2.20 -1.21,-3.89 -0.47,-5.59 0.56,-7.26 1.61,-8.94 3.19,-9.16 4.78,-9.38 5.48,-8.12 6.19,-6.85 5.83,-4.10 5.47,-1.36 5.03,1.00 4.60,3.38 4.13,6.64 3.65,9.90 3.15,12.50 2.66,15.09 2.30,17.29 1.95,19.50 1.46,21.90 0.96,24.30 0.69,25.94 0.42,27.58 0.42,27.89 0.42,28.21 0.38,28.39 0.34,28.57 0.25,28.73 0.17,28.89 0.05,29.03 -0.06,29.17 -0.21,29.28 -0.36,29.39 -0.53,29.46 -0.70,29.52 -0.89,29.55 -1.07,29.57 -1.25,29.55 -1.44,29.54 -1.61,29.47 -1.78,29.41 -1.94,29.31 -2.09,29.20 -2.21,29.07 -2.34,28.93 -2.43,28.77 -2.51,28.61 -2.56,28.43 -2.61,28.25 -2.61,28.07 -2.61,27.88 -2.28,26.35 -1.94,24.82 -1.53,22.77 -1.12,20.72 -0.68,18.41 -0.24,16.10 0.20,13.80 0.66,11.51 1.11,9.50 1.57,7.49 2.02,5.61 2.47,3.74 2.91,2.04 3.35,0.35 3.63,-1.03 3.91,-2.41 4.17,-3.51 4.43,-4.60 4.85,-5.39 5.28,-6.18 5.46,-6.41 5.64,-6.63 5.87,-6.81 6.10,-6.99 6.36,-7.10 6.63,-7.22 6.91,-7.27 7.19,-7.32 7.48,-7.30 7.77,-7.28 8.05,-7.20 8.32,-7.11 8.57,-6.96 8.81,-6.81 9.02,-6.60 9.22,-6.40 9.37,-6.15 9.52,-5.90 9.60,-5.63 9.68,-5.35 9.70,-5.06 9.72,-4.77 9.66,-4.49 9.61,-4.21 9.49,-3.94 9.37,-3.68 9.42,-2.18 9.47,-0.68 9.15,1.39 8.82,3.47 8.69,5.35 8.56,7.22 8.19,9.73 7.82,12.24 6.88,18.71 5.94,25.19 5.42,29.65 4.89,34.11 4.52,37.17 4.15,40.23 4.00,42.06 3.85,43.89 3.93,44.84 4.01,45.78 3.96,46.03 3.91,46.29 3.80,46.52 3.69,46.75 3.52,46.95 3.36,47.15 3.15,47.31 2.95,47.46 2.71,47.56 2.47,47.66 2.22,47.70 1.96,47.74 1.71,47.72 1.45,47.70 1.20,47.62 0.96,47.54 0.74,47.40 0.52,47.26 0.34,47.08 0.17,46.89 0.04,46.67 -0.08,46.44 -0.15,46.19 -0.22,45.95 -0.23,45.69 -0.24,45.43 0.18,44.45 0.62,43.46 0.98,42.04 1.33,40.61 2.02,37.55 2.72,34.50 3.44,31.46 4.16,28.42 4.88,25.14 5.61,21.85 6.33,18.58 7.06,15.30 7.78,12.16 8.51,9.03 9.40,5.92 10.29,2.80 11.08,-0.06 11.88,-2.92 12.51,-5.03 13.14,-7.15 13.71,-8.81 14.28,-10.47 14.78,-11.30 15.28,-12.12 15.41,-12.40 15.55,-12.68 15.75,-12.92 15.95,-13.16 16.20,-13.35 16.45,-13.53 16.74,-13.65 17.03,-13.77 17.34,-13.81 17.65,-13.86 17.96,-13.83 18.27,-13.80 18.56,-13.70 18.86,-13.60 19.12,-13.43 19.38,-13.26 19.59,-13.03 19.81,-12.81 19.96,-12.53 20.11,-12.26 20.20,-11.96 20.28,-11.66 20.29,-11.35 20.30,-11.04 20.23,-10.73 20.17,-10.43 20.55,-9.27 20.94,-8.10 20.68,-5.73 20.42,-3.36 20.00,-0.95 19.58,1.45 18.49,6.50 17.40,11.56 16.52,15.84 15.63,20.13 14.82,24.10 14.01,28.08 13.21,32.60 12.40,37.13 11.86,40.19 11.32,43.25 11.24,43.99 11.16,44.72 11.09,44.97 11.02,45.21 10.90,45.43 10.77,45.65 10.60,45.84 10.43,46.02 10.21,46.16 10.00,46.30 9.76,46.38 9.52,46.46 9.27,46.49 9.01,46.51 8.76,46.47 8.51,46.43 8.28,46.33 8.04,46.24 7.84,46.09 7.63,45.94 7.47,45.74 7.31,45.55 7.20,45.32 7.09,45.09 7.03,44.84 6.98,44.59 6.99,44.34 7.00,44.09 7.67,41.90 8.34,39.71 8.77,37.53 9.20,35.36 9.98,32.34 10.75,29.32 11.64,25.90 12.53,22.48 14.04,16.57 15.55,10.66 16.92,5.96 18.29,1.25 19.29,-2.30 20.29,-5.85 21.15,-8.56 22.01,-11.27 22.65,-13.28 23.28,-15.28 23.71,-16.51 24.13,-17.73 24.41,-18.04 24.69,-18.36 24.83,-18.62 24.97,-18.89 25.16,-19.11 25.36,-19.34 25.60,-19.51 25.85,-19.68 26.13,-19.79 26.41,-19.90 26.70,-19.94 27.00,-19.98 27.30,-19.94 27.59,-19.91 27.88,-19.80 28.16,-19.70 28.40,-19.53 28.65,-19.36 28.85,-19.14 29.05,-18.92 29.19,-18.65 29.33,-18.39 29.41,-18.10 29.48,-17.81 29.48,-17.51 29.48,-17.21 29.41,-16.92 29.34,-16.63 29.47,-15.55 29.60,-14.47 28.94,-10.45 28.28,-6.43 27.57,-2.85 26.85,0.72 26.12,4.38 25.38,8.04 24.63,11.89 23.89,15.74 23.13,19.40 22.37,23.06 21.61,26.50 20.84,29.93 20.19,33.75 19.54,37.57 19.24,39.98 18.94,42.39 19.09,42.93 19.24,43.47 19.18,43.70 19.13,43.94 19.02,44.16 18.91,44.38 18.76,44.56 18.60,44.75 18.40,44.89 18.20,45.03 17.98,45.12 17.75,45.21 17.51,45.25 17.27,45.28 17.03,45.25 16.79,45.23 16.56,45.15 16.33,45.07 16.13,44.93 15.92,44.80 15.76,44.62 15.59,44.44 15.48,44.23 15.36,44.01 15.30,43.78 15.23,43.54 15.23,43.30 15.22,43.06 15.84,40.82 16.46,38.58 16.88,36.70 17.31,34.83 17.78,32.86 18.24,30.89 18.71,28.64 19.18,26.40 19.80,23.68 20.42,20.96 21.10,18.21 21.78,15.46 22.57,11.72 23.36,7.98 24.00,5.48 24.64,2.98 25.20,1.16 25.76,-0.66 26.12,-1.96 26.47,-3.25 26.90,-4.41 27.34,-5.56 27.48,-5.85 27.62,-6.13 27.83,-6.37 28.04,-6.61 28.29,-6.79 28.55,-6.97 28.84,-7.09 29.14,-7.21 29.45,-7.25 29.76,-7.29 30.08,-7.26 30.39,-7.23 30.69,-7.12 30.98,-7.01 31.25,-6.84 31.51,-6.66 31.72,-6.43 31.93,-6.19 32.08,-5.92 32.24,-5.64 32.32,-5.33 32.40,-5.03 32.40,-4.71 32.41,-4.40 32.34,-4.09 32.26,-3.78 32.11,-0.73 31.95,2.32 31.20,6.67 30.45,11.02 29.38,17.72 28.31,24.41 26.95,32.31 25.60,40.20 24.74,45.55 23.88,50.90 23.36,54.73 22.85,58.56 22.48,61.35 22.10,64.13 22.09,65.03 22.08,65.93 22.02,66.18 21.96,66.42 21.84,66.64 21.72,66.87 21.55,67.05 21.38,67.24 21.18,67.38 20.97,67.53 20.73,67.61 20.49,67.70 20.24,67.73 19.99,67.76 19.74,67.73 19.49,67.70 19.26,67.60 19.02,67.51 18.82,67.37 18.61,67.22 18.44,67.03 18.28,66.84 18.16,66.62 18.05,66.40 17.99,66.15 17.93,65.91 17.93,65.65 17.93,65.40 18.61,62.90 19.29,60.40 20.01,57.51 20.73,54.61 21.42,51.01 22.11,47.42 22.81,43.71 23.52,40.00 24.22,35.85 24.92,31.70 25.77,27.31 26.63,22.91 27.39,18.49 28.14,14.07 29.42,8.08 30.69,2.09 31.53,-1.71 32.36,-5.52 33.01,-8.05 33.66,-10.59 34.26,-12.23 34.86,-13.87 35.80,-15.14 36.74,-16.41 36.54,-16.09 36.34,-15.77 36.54,-16.07 36.74,-16.38 37.01,-16.62 37.27,-16.87 37.59,-17.05 37.91,-17.22 38.26,-17.32 38.61,-17.41 38.97,-17.42 39.33,-17.43 39.69,-17.35 40.04,-17.27 40.37,-17.11 40.69,-16.95 40.97,-16.72 41.25,-16.48 41.46,-16.19 41.67,-15.89 41.81,-15.56 41.95,-15.22 42.00,-14.86 42.05,-14.50 42.02,-14.14 41.98,-13.78 41.86,-13.44 41.74,-13.10 41.87,-11.81 41.99,-10.53 41.64,-6.95 41.29,-3.38 40.50,1.47 39.71,6.32 38.59,11.70 37.46,17.07 36.21,23.20 34.96,29.33 34.06,34.61 33.16,39.89 32.92,42.88 32.68,45.87 33.04,46.68 33.40,47.49 33.36,47.72 33.32,47.95 33.22,48.16 33.13,48.37 32.98,48.56 32.84,48.74 32.66,48.88 32.47,49.03 32.26,49.12 32.05,49.22 31.82,49.26 31.59,49.30 31.36,49.29 31.13,49.28 30.91,49.21 30.68,49.14 30.48,49.02 30.29,48.90 30.12,48.73 29.96,48.57 29.84,48.37 29.71,48.17 29.65,47.95 29.58,47.73 29.56,47.49 29.55,47.26 30.13,46.11 30.71,44.97 31.22,43.54 31.73,42.12 32.54,39.87 33.35,37.62 34.25,35.07 35.15,32.53 36.10,29.61 37.05,26.69 38.03,23.58 39.01,20.47 40.10,16.30 41.19,12.13 41.87,8.65 42.54,5.18 42.97,3.21 43.41,1.25 43.58,0.57 43.75,-0.10 43.86,-0.38 43.96,-0.67 44.14,-0.92 44.31,-1.17 44.54,-1.37 44.76,-1.57 45.03,-1.71 45.30,-1.86 45.60,-1.93 45.89,-2.00 46.20,-2.00 46.50,-2.00 46.80,-1.93 47.09,-1.86 47.36,-1.72 47.63,-1.58 47.86,-1.38 48.08,-1.17 48.26,-0.92 48.43,-0.67 48.54,-0.39 48.65,-0.11 48.68,0.19 48.72,0.49 48.68,0.79 48.65,1.09 48.48,3.56 48.31,6.03 47.93,8.18 47.56,10.34 47.11,12.95 46.65,15.55 45.87,20.25 45.09,24.94 44.46,28.94 43.84,32.94 43.09,37.78 42.34,42.63 42.03,45.23 41.72,47.84 41.74,49.10 41.76,50.36 40.54,50.24 39.32,50.12 39.64,48.48 39.97,46.85 40.64,44.81 41.31,42.77 42.00,40.36 42.69,37.95 43.26,35.40 43.83,32.85 44.36,30.57 44.89,28.29 45.40,26.17 45.91,24.05 46.40,21.99 46.89,19.94 47.22,18.25 47.54,16.55 47.82,15.21 48.09,13.88 48.33,12.84 48.56,11.81 48.69,11.52 48.82,11.24 49.02,10.99 49.21,10.75 49.46,10.56 49.71,10.37 50.00,10.24 50.28,10.11 50.59,10.06 50.90,10.00 51.21,10.03 51.52,10.05 51.82,10.14 52.12,10.24 52.39,10.40 52.66,10.57 52.88,10.79 53.10,11.01 53.26,11.28 53.42,11.55 53.51,11.85 53.60,12.15 53.62,12.46 53.63,12.78 53.57,13.08 53.52,13.39 53.40,14.81 53.29,16.23 53.08,17.71 52.88,19.18 52.64,21.08 52.41,22.97 52.02,25.55 51.62,28.13 51.17,31.21 50.71,34.30 50.38,37.29 50.04,40.28 49.75,43.56 49.45,46.83 49.47,48.38 49.49,49.93 49.42,50.22 49.36,50.52 49.23,50.80 49.10,51.07 48.90,51.31 48.71,51.55 48.46,51.73 48.22,51.91 47.93,52.03 47.65,52.15 47.35,52.19 47.05,52.24 46.75,52.21 46.44,52.19 46.15,52.09 45.86,51.99 45.60,51.83 45.35,51.66 45.14,51.44 44.93,51.22 44.78,50.95 44.62,50.69 44.54,50.39 44.46,50.10 44.45,49.79 44.44,49.49 45.76,48.33 47.07,47.18 47.70,45.46 48.33,43.73 49.43,40.72 50.53,37.70 51.43,35.23 52.33,32.77 53.10,30.32 53.87,27.86 54.53,26.27 55.19,24.68 55.93,23.59 56.67,22.49 58.39,22.44 60.11,22.39 59.66,22.04 59.20,21.69 59.31,21.51 59.42,21.33 59.58,21.19 59.74,21.05 59.93,20.96 60.13,20.88 60.34,20.87 60.55,20.85 60.76,20.91 60.97,20.96 61.14,21.08 61.32,21.19 61.45,21.36 61.58,21.53 61.65,21.73 61.72,21.93 61.73,22.14 61.73,22.35 61.67,22.56 61.60,22.76 61.48,22.93 61.35,23.10 61.17,23.22 61.00,23.34 60.80,23.40 60.59,23.46 60.38,23.46 60.17,23.45 59.97,23.37 59.77,23.30 59.61,23.16 59.44,23.03 59.33,22.85 59.22,22.66 59.17,22.46 59.12,22.25 59.14,22.04 59.16,21.83 59.25,21.63 59.33,21.44 59.48,21.28 59.62,21.13 59.81,21.02 59.99,20.92 60.20,20.88 60.41,20.85 60.62,20.88 60.83,20.91 61.02,21.01 61.21,21.10 61.36,21.26 61.51,21.41 61.60,21.60 61.69,21.79 61.72,22.00 61.74,22.21 61.70,22.42 61.66,22.63 61.66,22.63 61.66,22.63 59.51,24.18 57.36,25.72 58.64,26.21 59.92,26.70 59.31,28.08 58.70,29.46 57.82,31.98 56.95,34.49 56.02,36.94 55.08,39.39 53.90,42.53 52.71,45.67 51.10,47.80 49.49,49.93 49.42,50.22 49.36,50.52 49.23,50.80 49.10,51.07 48.90,51.31 48.71,51.54 48.46,51.73 48.22,51.91 47.94,52.03 47.65,52.15 47.35,52.19 47.05,52.24 46.75,52.21 46.44,52.19 46.15,52.09 45.86,51.99 45.61,51.83 45.35,51.66 45.14,51.44 44.93,51.22 44.78,50.95 44.62,50.69 44.54,50.39 44.46,50.10 44.45,49.79 44.44,49.49 44.41,47.94 44.38,46.39 44.66,43.06 44.94,39.72 45.28,36.64 45.61,33.55 46.06,30.45 46.51,27.35 46.89,24.85 47.26,22.35 47.49,20.40 47.73,18.46 47.93,16.99 48.14,15.53 48.35,13.67 48.56,11.81 48.69,11.53 48.82,11.24 49.02,10.99 49.21,10.75 49.46,10.56 49.71,10.37 49.99,10.24 50.28,10.11 50.59,10.06 50.90,10.00 51.21,10.03 51.52,10.05 51.82,10.14 52.12,10.24 52.39,10.40 52.66,10.57 52.88,10.79 53.10,11.01 53.26,11.28 53.42,11.55 53.51,11.85 53.60,12.15 53.62,12.46 53.63,12.78 53.57,13.08 53.52,13.39 53.27,14.19 53.02,14.99 52.71,16.28 52.39,17.56 51.99,19.33 51.60,21.10 51.07,23.14 50.55,25.19 50.03,27.29 49.50,29.39 48.95,31.64 48.41,33.89 47.79,36.58 47.16,39.27 46.42,41.75 45.67,44.23 44.97,46.27 44.27,48.30 42.66,50.92 41.06,53.54 39.49,53.09 37.93,52.65 37.55,51.55 37.17,50.45 37.16,48.89 37.14,47.33 37.42,44.65 37.69,41.97 38.33,37.08 38.96,32.19 39.56,28.17 40.16,24.14 40.90,19.42 41.65,14.71 42.08,12.08 42.52,9.46 42.88,7.43 43.24,5.40 43.43,3.87 43.61,2.33 43.68,1.11 43.75,-0.10 43.86,-0.38 43.96,-0.67 44.14,-0.92 44.31,-1.17 44.54,-1.37 44.76,-1.57 45.03,-1.71 45.30,-1.86 45.60,-1.93 45.89,-2.00 46.20,-2.00 46.50,-2.00 46.79,-1.93 47.09,-1.86 47.36,-1.72 47.63,-1.58 47.86,-1.38 48.08,-1.17 48.26,-0.92 48.43,-0.67 48.54,-0.39 48.65,-0.11 48.68,0.19 48.72,0.49 48.68,0.79 48.65,1.09 48.42,1.76 48.19,2.42 47.68,4.31 47.17,6.19 46.30,9.74 45.43,13.28 44.25,17.52 43.06,21.75 42.07,24.88 41.07,28.02 40.08,30.99 39.08,33.97 38.13,36.50 37.17,39.04 36.30,41.30 35.44,43.56 34.42,45.52 33.40,47.49 33.36,47.72 33.32,47.95 33.22,48.16 33.13,48.37 32.98,48.56 32.84,48.74 32.66,48.88 32.48,49.03 32.26,49.12 32.05,49.22 31.82,49.26 31.59,49.30 31.36,49.29 31.13,49.28 30.91,49.21 30.68,49.14 30.48,49.02 30.29,48.90 30.12,48.73 29.96,48.57 29.84,48.37 29.71,48.17 29.65,47.95 29.58,47.73 29.56,47.49 29.55,47.26 29.20,46.56 28.86,45.86 28.99,42.58 29.13,39.30 29.78,33.89 30.43,28.48 31.48,22.31 32.53,16.14 33.44,10.84 34.35,5.54 34.95,0.84 35.56,-3.86 35.79,-7.21 36.01,-10.56 36.01,-11.97 36.00,-13.39 36.17,-14.58 36.34,-15.77 36.54,-16.07 36.74,-16.38 37.01,-16.62 37.27,-16.87 37.59,-17.05 37.91,-17.22 38.26,-17.32 38.61,-17.41 38.97,-17.42 39.33,-17.43 39.69,-17.35 40.04,-17.27 40.37,-17.11 40.69,-16.95 40.97,-16.72 41.25,-16.48 41.46,-16.19 41.67,-15.89 41.81,-15.56 41.95,-15.22 42.00,-14.86 42.05,-14.50 42.02,-14.14 41.98,-13.78 41.86,-13.44 41.74,-13.10 41.10,-12.41 40.46,-11.73 39.93,-10.40 39.40,-9.07 38.74,-6.65 38.08,-4.22 37.19,-0.42 36.30,3.38 34.88,9.21 33.45,15.04 32.58,19.50 31.72,23.96 30.79,28.28 29.85,32.59 29.05,36.77 28.25,40.95 27.46,44.65 26.67,48.36 25.86,52.05 25.05,55.75 24.27,58.52 23.49,61.29 22.79,63.61 22.08,65.93 22.02,66.18 21.96,66.42 21.84,66.64 21.72,66.87 21.55,67.05 21.38,67.24 21.18,67.38 20.97,67.53 20.73,67.61 20.49,67.70 20.24,67.73 19.99,67.76 19.74,67.73 19.49,67.70 19.26,67.60 19.02,67.51 18.82,67.37 18.61,67.22 18.44,67.03 18.28,66.84 18.16,66.62 18.05,66.40 17.99,66.15 17.93,65.91 17.93,65.65 17.93,65.40 17.93,64.50 17.94,63.61 18.28,60.81 18.61,58.01 19.10,54.12 19.59,50.23 20.40,44.85 21.22,39.48 22.45,31.60 23.68,23.72 24.63,16.98 25.59,10.24 26.22,5.98 26.86,1.72 27.11,-0.44 27.35,-2.61 27.35,-4.09 27.34,-5.56 27.48,-5.85 27.62,-6.13 27.83,-6.37 28.03,-6.61 28.29,-6.79 28.55,-6.97 28.84,-7.09 29.14,-7.21 29.45,-7.25 29.76,-7.29 30.07,-7.26 30.39,-7.23 30.69,-7.12 30.98,-7.01 31.25,-6.84 31.51,-6.66 31.72,-6.43 31.93,-6.19 32.08,-5.92 32.24,-5.64 32.32,-5.33 32.40,-5.03 32.40,-4.71 32.41,-4.40 32.34,-4.09 32.26,-3.78 31.82,-2.80 31.38,-1.82 30.97,-0.47 30.55,0.87 29.97,2.57 29.40,4.26 28.72,6.67 28.05,9.08 27.09,12.83 26.13,16.58 25.41,19.28 24.68,21.98 24.02,24.64 23.36,27.30 22.85,29.60 22.33,31.89 21.84,33.84 21.35,35.78 20.88,37.71 20.41,39.63 19.82,41.55 19.24,43.47 19.18,43.70 19.13,43.94 19.02,44.16 18.91,44.38 18.76,44.56 18.60,44.75 18.40,44.89 18.20,45.03 17.98,45.12 17.75,45.21 17.51,45.25 17.27,45.28 17.03,45.25 16.79,45.23 16.56,45.15 16.33,45.07 16.13,44.93 15.92,44.80 15.76,44.62 15.59,44.44 15.48,44.23 15.36,44.01 15.30,43.78 15.23,43.54 15.23,43.30 15.22,43.06 15.02,42.60 14.81,42.15 15.03,39.52 15.24,36.90 15.80,32.92 16.36,28.95 17.09,25.54 17.82,22.13 18.55,18.49 19.29,14.85 20.02,10.99 20.76,7.13 21.47,3.47 22.18,-0.18 22.85,-3.68 23.51,-7.18 24.26,-11.59 25.02,-16.01 24.85,-17.19 24.69,-18.36 24.83,-18.62 24.97,-18.89 25.16,-19.11 25.36,-19.34 25.60,-19.51 25.85,-19.68 26.13,-19.79 26.41,-19.90 26.70,-19.94 27.00,-19.98 27.30,-19.94 27.59,-19.91 27.87,-19.80 28.16,-19.70 28.40,-19.53 28.65,-19.36 28.85,-19.14 29.05,-18.92 29.19,-18.65 29.33,-18.39 29.40,-18.10 29.48,-17.81 29.48,-17.51 29.48,-17.21 29.41,-16.92 29.34,-16.63 28.98,-16.27 28.61,-15.90 28.19,-14.86 27.77,-13.81 27.10,-11.83 26.43,-9.84 25.57,-7.22 24.71,-4.60 23.68,-1.03 22.65,2.53 21.28,7.16 19.91,11.79 18.35,17.70 16.79,23.61 15.88,27.01 14.97,30.42 14.20,33.32 13.44,36.23 12.95,38.51 12.47,40.79 11.82,42.76 11.16,44.72 11.09,44.97 11.02,45.21 10.90,45.43 10.77,45.65 10.60,45.84 10.43,46.02 10.21,46.16 10.00,46.30 9.76,46.38 9.52,46.46 9.27,46.49 9.01,46.51 8.76,46.47 8.51,46.43 8.28,46.33 8.04,46.24 7.84,46.09 7.63,45.94 7.47,45.74 7.31,45.55 7.20,45.32 7.09,45.09 7.03,44.84 6.98,44.59 6.99,44.34 7.00,44.09 7.03,43.34 7.06,42.60 7.47,39.48 7.87,36.36 8.61,31.75 9.35,27.14 10.14,23.16 10.93,19.18 11.78,14.88 12.63,10.58 13.60,5.60 14.58,0.61 14.94,-1.67 15.30,-3.95 15.60,-6.63 15.90,-9.32 15.59,-10.72 15.28,-12.12 15.41,-12.40 15.55,-12.68 15.75,-12.92 15.95,-13.16 16.20,-13.35 16.45,-13.53 16.74,-13.65 17.03,-13.77 17.34,-13.81 17.65,-13.86 17.96,-13.83 18.27,-13.80 18.56,-13.70 18.86,-13.60 19.12,-13.43 19.38,-13.26 19.59,-13.03 19.81,-12.81 19.96,-12.53 20.11,-12.26 20.20,-11.96 20.28,-11.66 20.29,-11.35 20.30,-11.04 20.23,-10.73 20.17,-10.43 19.62,-9.60 19.07,-8.78 18.52,-7.23 17.98,-5.68 17.35,-3.62 16.71,-1.56 15.89,1.32 15.06,4.20 14.16,7.19 13.27,10.17 12.49,13.27 11.72,16.36 10.95,19.63 10.17,22.89 9.40,26.20 8.63,29.52 7.86,32.54 7.09,35.55 6.31,38.63 5.53,41.70 4.77,43.74 4.01,45.78 3.96,46.03 3.91,46.29 3.80,46.52 3.69,46.75 3.52,46.95 3.36,47.15 3.15,47.31 2.95,47.46 2.71,47.56 2.47,47.66 2.22,47.70 1.96,47.74 1.71,47.72 1.45,47.70 1.20,47.62 0.96,47.54 0.74,47.40 0.52,47.26 0.35,47.08 0.17,46.89 0.04,46.67 -0.08,46.44 -0.15,46.19 -0.22,45.95 -0.23,45.69 -0.24,45.43 -0.32,44.49 -0.40,43.56 -0.24,41.64 -0.09,39.73 0.26,36.67 0.61,33.62 1.11,29.11 1.61,24.61 2.40,18.10 3.19,11.58 3.50,9.24 3.82,6.90 3.95,4.81 4.08,2.72 4.38,0.88 4.68,-0.96 4.86,-2.40 5.05,-3.85 5.16,-5.02 5.28,-6.18 5.46,-6.41 5.64,-6.63 5.87,-6.81 6.10,-6.99 6.36,-7.10 6.63,-7.22 6.91,-7.27 7.19,-7.32 7.48,-7.30 7.77,-7.28 8.05,-7.20 8.32,-7.11 8.57,-6.96 8.81,-6.81 9.02,-6.60 9.22,-6.40 9.37,-6.15 9.52,-5.90 9.60,-5.63 9.68,-5.35 9.70,-5.06 9.72,-4.77 9.66,-4.49 9.61,-4.21 9.49,-3.94 9.37,-3.68 9.12,-3.54 8.87,-3.40 8.45,-2.39 8.03,-1.38 7.60,0.06 7.17,1.51 6.61,3.11 6.05,4.71 5.51,6.52 4.96,8.34 4.43,10.27 3.90,12.21 3.38,14.47 2.86,16.73 2.37,19.03 1.88,21.34 1.44,23.40 1.01,25.46 0.71,26.83 0.42,28.21 0.38,28.39 0.34,28.57 0.25,28.73 0.17,28.89 0.05,29.03 -0.06,29.17 -0.21,29.28 -0.36,29.39 -0.53,29.46 -0.70,29.52 -0.89,29.55 -1.07,29.57 -1.25,29.55 -1.44,29.54 -1.61,29.47 -1.78,29.41 -1.94,29.31 -2.09,29.20 -2.21,29.07 -2.34,28.93 -2.43,28.77 -2.51,28.61 -2.56,28.43 -2.61,28.25 -2.61,28.07 -2.61,27.88 -2.74,27.58 -2.87,27.28 -2.77,25.46 -2.67,23.64 -2.30,21.26 -1.93,18.89 -1.59,16.63 -1.25,14.36 -0.79,11.86 -0.33,9.36 0.07,6.04 0.49,2.72 0.80,0.43 1.11,-1.85 1.60,-4.13 2.10,-6.41 3.17,-5.86 4.24,-5.30 3.50,-3.76 2.76,-2.21 1.98,-0.61 1.20,0.98 0.72,2.01 0.25,3.04 0.07,3.21 -0.10,3.39 -0.31,3.51 -0.52,3.64 -0.76,3.71 -1.00,3.78 -1.24,3.79 -1.49,3.81 -1.73,3.76 -1.98,3.71 -2.20,3.61 -2.43,3.50 -2.62,3.35 -2.81,3.19 -2.96,3.00 -3.12,2.80 -3.21,2.57 -3.31,2.35 -3.36,2.10 -3.40,1.86 -3.38,1.61 -3.36,1.37 -3.29,1.13 -3.21,0.89 -3.08,0.68 -2.95,0.47 -2.83,0.33 -2.70,0.19 -1.90,-0.34 -1.10,-0.88 -0.98,-1.00 -0.86,-1.12 -0.71,-1.21 -0.56,-1.29 -0.40,-1.34 -0.24,-1.39 -0.07,-1.40 0.09,-1.41 0.26,-1.38 0.43,-1.34 0.59,-1.27 0.74,-1.20 0.87,-1.09 1.01,-0.99 1.11,-0.85 1.22,-0.72 1.28,-0.56 1.35,-0.40 1.38,-0.23 1.41,-0.07 1.40,0.09 1.39,0.26 1.33,0.43 1.28,0.59 1.19,0.74 1.10,0.88 1.10,0.88 L 1.10,0.88 Z"/></g><g transform="translate(222.50953719101256 281.5) rotate(0 -6.25 -35.5)" stroke="none"><path fill="#000000" d="M -1.36,0 Q -1.36,0 -1.67,-0.27 -1.98,-0.55 -2.33,-1.68 -2.67,-2.80 -2.97,-4.05 -3.27,-5.31 -3.67,-6.58 -4.07,-7.86 -4.44,-9.53 -4.80,-11.21 -5.25,-13.15 -5.69,-15.09 -6.19,-17.37 -6.68,-19.65 -7.05,-22.12 -7.42,-24.59 -8.00,-27.26 -8.58,-29.92 -9.14,-33.30 -9.69,-36.68 -10.21,-40.27 -10.74,-43.86 -11.24,-47.39 -11.75,-50.92 -12.25,-55.48 -12.76,-60.04 -12.98,-62.86 -13.19,-65.69 -13.42,-67.21 -13.64,-68.74 -13.57,-70.30 -13.49,-71.86 -13.53,-72.07 -13.57,-72.28 -13.53,-72.49 -13.50,-72.70 -13.40,-72.89 -13.30,-73.08 -13.15,-73.23 -13.00,-73.37 -12.81,-73.46 -12.61,-73.56 -12.40,-73.58 -12.19,-73.61 -11.98,-73.56 -11.78,-73.52 -11.59,-73.41 -11.41,-73.30 -11.27,-73.14 -11.13,-72.98 -11.05,-72.78 -10.97,-72.59 -10.96,-72.37 -10.94,-72.16 -11.00,-71.96 -11.06,-71.75 -11.17,-71.57 -11.29,-71.40 -11.46,-71.27 -11.63,-71.14 -11.83,-71.07 -12.03,-71.00 -12.24,-71.00 -12.45,-71.00 -12.66,-71.06 -12.86,-71.13 -13.03,-71.25 -13.20,-71.38 -13.32,-71.56 -13.44,-71.73 -13.50,-71.94 -13.56,-72.14 -13.55,-72.35 -13.54,-72.56 -13.46,-72.76 -13.38,-72.96 -13.25,-73.12 -13.11,-73.29 -12.93,-73.40 -12.75,-73.51 -12.54,-73.56 -12.33,-73.60 -12.12,-73.58 -11.91,-73.56 -11.72,-73.47 -11.52,-73.39 -11.37,-73.24 -11.21,-73.10 -11.11,-72.91 -11.01,-72.72 -11.01,-72.72 -11.01,-72.72 -9.83,-71.10 -8.66,-69.48 -8.41,-67.78 -8.17,-66.07 -7.95,-63.33 -7.74,-60.59 -7.24,-56.12 -6.75,-51.64 -6.24,-48.11 -5.74,-44.58 -5.23,-41.03 -4.72,-37.48 -4.21,-34.21 -3.71,-30.95 -3.13,-28.12 -2.56,-25.29 -2.24,-22.95 -1.93,-20.62 -1.50,-18.35 -1.06,-16.08 -0.67,-14.08 -0.28,-12.08 -0.03,-10.57 0.21,-9.06 0.58,-7.59 0.95,-6.12 1.12,-4.96 1.28,-3.80 1.63,-2.19 1.98,-0.59 1.67,-0.29 1.36,0 1.34,0.16 1.32,0.32 1.26,0.48 1.20,0.63 1.11,0.76 1.02,0.90 0.89,1.01 0.77,1.12 0.62,1.20 0.48,1.27 0.32,1.31 0.16,1.35 -0.00,1.35 -0.16,1.35 -0.32,1.31 -0.48,1.27 -0.62,1.20 -0.77,1.12 -0.89,1.01 -1.02,0.90 -1.11,0.76 -1.20,0.63 -1.26,0.48 -1.32,0.32 -1.34,0.16 -1.36,-0.00 -1.36,-0.00 L -1.36,0 Z"/></g><g transform="translate(199.50953719101256 219.5) rotate(0 11.5 -12.25)" stroke="none"><path fill="#000000" d="M -1.41,0 Q -1.41,0 -1.63,-1.29 -1.84,-2.58 -1.73,-3.83 -1.61,-5.08 -1.25,-6.43 -0.90,-7.78 -0.49,-9.29 -0.07,-10.81 0.55,-12.43 1.18,-14.05 1.96,-16.26 2.75,-18.47 3.41,-19.93 4.07,-21.38 5.00,-23.15 5.93,-24.92 7.94,-25.37 9.95,-25.82 10.66,-24.90 11.37,-23.99 12.67,-22.59 13.97,-21.20 15.35,-19.22 16.73,-17.24 17.57,-16.11 18.41,-14.99 19.58,-12.60 20.76,-10.20 22.30,-6.23 23.84,-2.26 23.90,-2.05 23.96,-1.85 23.96,-1.64 23.95,-1.43 23.88,-1.23 23.81,-1.03 23.67,-0.86 23.54,-0.70 23.36,-0.58 23.18,-0.47 22.98,-0.42 22.77,-0.36 22.56,-0.38 22.35,-0.40 22.15,-0.48 21.96,-0.57 21.80,-0.71 21.64,-0.85 21.53,-1.03 21.43,-1.22 21.39,-1.43 21.35,-1.64 21.38,-1.85 21.41,-2.06 21.50,-2.25 21.60,-2.44 21.75,-2.59 21.90,-2.74 22.09,-2.83 22.28,-2.93 22.49,-2.96 22.70,-2.99 22.91,-2.95 23.11,-2.91 23.30,-2.80 23.48,-2.70 23.63,-2.54 23.77,-2.38 23.85,-2.19 23.94,-1.99 23.95,-1.78 23.97,-1.57 23.92,-1.36 23.87,-1.15 23.75,-0.97 23.64,-0.80 23.47,-0.66 23.31,-0.53 23.11,-0.46 22.91,-0.38 22.70,-0.38 22.48,-0.37 22.28,-0.43 22.08,-0.50 21.91,-0.62 21.73,-0.74 21.61,-0.92 21.49,-1.09 21.49,-1.09 21.49,-1.09 19.25,-4.73 17.00,-8.36 16.00,-10.42 15.00,-12.48 14.10,-13.71 13.19,-14.93 11.90,-16.78 10.61,-18.64 9.76,-19.63 8.90,-20.63 8.26,-21.90 7.61,-23.17 8.64,-22.94 9.68,-22.70 8.85,-21.12 8.02,-19.54 7.39,-18.25 6.76,-16.95 5.88,-14.72 4.99,-12.49 4.39,-11.09 3.79,-9.70 3.33,-8.19 2.87,-6.68 2.36,-4.63 1.84,-2.58 1.63,-1.29 1.41,0 1.39,0.16 1.37,0.33 1.31,0.49 1.25,0.65 1.15,0.79 1.06,0.93 0.93,1.05 0.80,1.16 0.65,1.24 0.50,1.32 0.33,1.36 0.17,1.40 -0.00,1.40 -0.17,1.40 -0.33,1.36 -0.50,1.32 -0.65,1.24 -0.80,1.16 -0.93,1.05 -1.06,0.93 -1.15,0.79 -1.25,0.65 -1.31,0.49 -1.37,0.33 -1.39,0.16 -1.41,-0.00 -1.41,-0.00 L -1.41,0 Z"/></g><g transform="translate(212.50953719101256 34) rotate(0 28.25 0.75)" stroke="none"><path fill="#000000" d="M 0.29,-1.33 Q 0.29,-1.33 1.64,-1.30 2.98,-1.27 5.34,-1.56 7.70,-1.85 9.22,-1.98 10.74,-2.11 12.11,-2.16 13.47,-2.22 14.77,-2.25 16.07,-2.28 17.61,-2.15 19.14,-2.02 20.78,-1.82 22.41,-1.62 25.20,-1.39 27.99,-1.17 30.23,-1.22 32.47,-1.27 34.63,-1.29 36.79,-1.31 39.79,-1.18 42.78,-1.04 45.43,-0.98 48.08,-0.93 51.53,-0.37 54.98,0.17 55.19,0.20 55.40,0.24 55.58,0.34 55.77,0.44 55.92,0.60 56.06,0.75 56.15,0.95 56.24,1.14 56.26,1.35 56.28,1.56 56.23,1.77 56.18,1.98 56.07,2.16 55.96,2.34 55.80,2.48 55.63,2.61 55.43,2.69 55.24,2.77 55.02,2.77 54.81,2.78 54.61,2.72 54.40,2.67 54.23,2.54 54.05,2.42 53.93,2.25 53.80,2.08 53.73,1.88 53.67,1.68 53.67,1.47 53.67,1.25 53.74,1.05 53.81,0.85 53.94,0.68 54.07,0.52 54.25,0.40 54.43,0.28 54.63,0.23 54.84,0.17 55.05,0.19 55.26,0.20 55.46,0.28 55.65,0.36 55.82,0.50 55.98,0.64 56.08,0.82 56.19,1.01 56.23,1.21 56.28,1.42 56.25,1.63 56.23,1.84 56.14,2.04 56.05,2.23 55.90,2.38 55.75,2.53 55.56,2.63 55.37,2.73 55.16,2.76 54.95,2.79 54.95,2.79 54.95,2.79 51.47,3.27 47.98,3.76 45.27,3.70 42.56,3.64 39.70,3.50 36.84,3.37 34.70,3.39 32.56,3.41 30.08,3.45 27.61,3.49 24.72,3.25 21.83,3.02 20.26,2.81 18.68,2.61 17.40,2.46 16.11,2.32 14.84,2.31 13.56,2.30 12.25,2.30 10.94,2.30 9.54,2.30 8.15,2.30 6.65,2.42 5.15,2.55 3.67,2.48 2.18,2.42 0.94,1.87 -0.29,1.33 -0.45,1.27 -0.60,1.22 -0.74,1.13 -0.88,1.04 -0.99,0.92 -1.10,0.80 -1.18,0.65 -1.26,0.51 -1.30,0.35 -1.35,0.19 -1.35,0.03 -1.35,-0.13 -1.32,-0.29 -1.28,-0.45 -1.21,-0.60 -1.14,-0.74 -1.03,-0.87 -0.92,-1.00 -0.79,-1.09 -0.66,-1.19 -0.50,-1.25 -0.35,-1.31 -0.19,-1.34 -0.03,-1.36 0.13,-1.34 0.29,-1.33 0.29,-1.33 L 0.29,-1.33 Z"/></g><g transform="translate(272.50953719101256 47) rotate(0 7.5 -15)" stroke="none"><path fill="#000000" d="M 0.36,1.47 Q 0.36,1.47 -0.51,1.85 -1.39,2.23 -1.10,2.25 -0.81,2.27 -1.07,2.30 -1.34,2.33 -1.60,2.30 -1.87,2.27 -2.12,2.18 -2.37,2.08 -2.59,1.93 -2.81,1.78 -2.99,1.58 -3.17,1.38 -3.29,1.15 -3.42,0.91 -3.48,0.65 -3.55,0.39 -3.55,0.12 -3.55,-0.13 -3.49,-0.39 -3.42,-0.65 -3.30,-0.89 -3.18,-1.13 -3.00,-1.33 -2.82,-1.53 -2.60,-1.68 -2.38,-1.83 -2.13,-1.93 -1.88,-2.02 -0.41,-3.05 1.06,-4.08 2.52,-4.49 3.99,-4.91 5.46,-5.21 6.92,-5.52 8.80,-6.12 10.68,-6.72 12.14,-7.78 13.60,-8.84 14.76,-10.07 15.92,-11.30 16.26,-12.66 16.60,-14.02 16.15,-15.08 15.70,-16.14 14.20,-16.77 12.70,-17.41 11.19,-17.84 9.67,-18.28 7.97,-18.76 6.27,-19.24 4.66,-19.93 3.04,-20.63 1.04,-22.04 -0.96,-23.45 -2.96,-26.28 -4.96,-29.12 -5.09,-29.29 -5.22,-29.46 -5.28,-29.66 -5.35,-29.87 -5.35,-30.08 -5.35,-30.29 -5.28,-30.49 -5.21,-30.69 -5.08,-30.86 -4.95,-31.03 -4.77,-31.15 -4.59,-31.26 -4.39,-31.32 -4.18,-31.37 -3.97,-31.36 -3.76,-31.35 -3.56,-31.27 -3.36,-31.19 -3.20,-31.05 -3.04,-30.91 -2.93,-30.73 -2.83,-30.54 -2.78,-30.34 -2.74,-30.13 -2.76,-29.92 -2.79,-29.71 -2.88,-29.51 -2.97,-29.32 -3.12,-29.17 -3.26,-29.02 -3.45,-28.92 -3.64,-28.82 -3.85,-28.79 -4.06,-28.75 -4.27,-28.79 -4.48,-28.83 -4.67,-28.93 -4.85,-29.03 -5.00,-29.18 -5.14,-29.34 -5.23,-29.53 -5.32,-29.73 -5.34,-29.94 -5.36,-30.15 -5.31,-30.36 -5.27,-30.56 -5.16,-30.74 -5.04,-30.93 -4.88,-31.06 -4.72,-31.20 -4.52,-31.28 -4.32,-31.35 -4.11,-31.36 -3.90,-31.37 -3.69,-31.31 -3.49,-31.25 -3.31,-31.13 -3.14,-31.01 -3.14,-31.01 -3.14,-31.01 -0.48,-29.38 2.17,-27.75 3.70,-26.60 5.22,-25.45 6.50,-24.85 7.77,-24.25 9.49,-23.71 11.21,-23.17 13.01,-22.56 14.80,-21.95 16.22,-21.20 17.63,-20.46 18.63,-19.49 19.63,-18.53 20.20,-17.25 20.76,-15.97 20.75,-14.38 20.74,-12.80 19.97,-10.65 19.20,-8.50 17.74,-6.90 16.29,-5.30 14.29,-3.76 12.30,-2.22 10.11,-1.42 7.92,-0.63 6.57,-0.37 5.23,-0.10 4.15,0.13 3.06,0.37 1.95,0.54 0.85,0.71 0.01,1.49 -0.81,2.27 -1.07,2.30 -1.34,2.33 -1.60,2.30 -1.87,2.27 -2.12,2.18 -2.37,2.08 -2.59,1.93 -2.81,1.78 -2.99,1.58 -3.17,1.38 -3.29,1.15 -3.42,0.91 -3.48,0.65 -3.55,0.39 -3.55,0.12 -3.55,-0.13 -3.49,-0.39 -3.42,-0.65 -3.30,-0.89 -3.18,-1.13 -3.00,-1.33 -2.82,-1.53 -2.60,-1.68 -2.38,-1.83 -2.13,-1.93 -1.88,-2.02 -1.39,-1.84 -0.90,-1.66 -0.63,-1.57 -0.36,-1.47 -0.18,-1.50 -0.00,-1.52 0.17,-1.50 0.35,-1.48 0.53,-1.41 0.70,-1.35 0.85,-1.24 1.00,-1.14 1.12,-1.00 1.25,-0.86 1.33,-0.70 1.42,-0.54 1.46,-0.36 1.51,-0.18 1.51,-0.00 1.51,0.17 1.46,0.35 1.42,0.53 1.34,0.69 1.25,0.86 1.13,0.99 1.01,1.13 0.86,1.24 0.71,1.34 0.54,1.41 0.36,1.47 0.36,1.47 L 0.36,1.47 Z"/></g><g transform="translate(187.50953719101256 34) rotate(0 -26.75 -3.5)" stroke="none"><path fill="#000000" d="M -0.11,1.53 Q -0.11,1.53 -2.00,1.64 -3.89,1.74 -5.09,1.74 -6.29,1.74 -7.36,1.76 -8.43,1.79 -9.61,1.67 -10.79,1.56 -12.96,1.78 -15.13,2.01 -16.53,2.07 -17.93,2.13 -19.25,2.31 -20.57,2.49 -23.08,2.74 -25.59,3.00 -27.61,3.24 -29.63,3.48 -31.75,3.60 -33.86,3.72 -35.88,3.63 -37.90,3.54 -39.77,3.18 -41.64,2.83 -43.42,1.99 -45.20,1.15 -47.35,-0.26 -49.50,-1.68 -51.38,-3.95 -53.26,-6.21 -53.41,-6.36 -53.56,-6.51 -53.66,-6.70 -53.75,-6.89 -53.78,-7.10 -53.81,-7.32 -53.77,-7.52 -53.73,-7.73 -53.63,-7.92 -53.52,-8.10 -53.37,-8.25 -53.21,-8.39 -53.01,-8.47 -52.82,-8.56 -52.61,-8.58 -52.40,-8.59 -52.19,-8.54 -51.98,-8.49 -51.80,-8.38 -51.62,-8.26 -51.49,-8.10 -51.36,-7.93 -51.28,-7.73 -51.21,-7.54 -51.20,-7.32 -51.20,-7.11 -51.26,-6.91 -51.32,-6.70 -51.44,-6.53 -51.57,-6.36 -51.74,-6.23 -51.91,-6.11 -52.11,-6.05 -52.32,-5.98 -52.53,-5.99 -52.74,-5.99 -52.94,-6.07 -53.14,-6.14 -53.31,-6.27 -53.47,-6.40 -53.59,-6.58 -53.70,-6.76 -53.75,-6.97 -53.81,-7.17 -53.79,-7.39 -53.77,-7.60 -53.69,-7.79 -53.61,-7.99 -53.47,-8.15 -53.32,-8.31 -53.14,-8.41 -52.95,-8.52 -52.75,-8.56 -52.54,-8.60 -52.33,-8.57 -52.12,-8.54 -51.93,-8.45 -51.74,-8.35 -51.74,-8.35 -51.74,-8.35 -49.09,-7.39 -46.45,-6.43 -44.52,-5.23 -42.58,-4.04 -41.52,-3.44 -40.45,-2.85 -39.01,-2.54 -37.57,-2.24 -35.85,-2.12 -34.14,-2.01 -32.20,-2.09 -30.26,-2.17 -28.16,-2.39 -26.06,-2.61 -23.60,-2.77 -21.14,-2.93 -19.56,-3.05 -17.99,-3.17 -16.63,-3.14 -15.27,-3.11 -14.11,-3.09 -12.94,-3.07 -10.63,-2.89 -8.32,-2.71 -7.20,-2.63 -6.08,-2.56 -4.83,-2.44 -3.58,-2.32 -1.73,-1.92 0.11,-1.53 0.29,-1.49 0.48,-1.46 0.64,-1.38 0.81,-1.30 0.96,-1.18 1.10,-1.06 1.21,-0.92 1.32,-0.77 1.40,-0.60 1.47,-0.43 1.50,-0.25 1.53,-0.06 1.52,0.11 1.50,0.30 1.45,0.47 1.39,0.65 1.29,0.81 1.19,0.96 1.06,1.09 0.92,1.22 0.76,1.31 0.60,1.41 0.43,1.46 0.25,1.51 0.06,1.52 -0.11,1.53 -0.11,1.53 L -0.11,1.53 Z"/></g><g transform="translate(135.50953719101256 43.5) rotate(0 -15.25 -16.25)" stroke="none"><path fill="#000000" d="M 0.38,1.52 Q 0.38,1.52 -0.70,2.06 -1.79,2.60 -3.72,2.88 -5.64,3.15 -6.92,3.10 -8.19,3.05 -10.36,2.48 -12.53,1.90 -13.64,1.20 -14.76,0.49 -15.72,-0.17 -16.69,-0.85 -17.77,-1.78 -18.85,-2.71 -19.87,-3.68 -20.90,-4.65 -21.83,-5.71 -22.77,-6.78 -23.59,-7.51 -24.42,-8.24 -26.51,-9.87 -28.60,-11.50 -29.40,-12.23 -30.19,-12.97 -31.30,-14.75 -32.41,-16.53 -32.34,-18.45 -32.26,-20.37 -31.30,-22.48 -30.33,-24.60 -28.14,-26.07 -25.95,-27.53 -24.20,-28.34 -22.45,-29.15 -21.01,-29.77 -19.57,-30.39 -17.78,-31.10 -16.00,-31.80 -13.99,-32.65 -11.98,-33.50 -9.49,-33.90 -6.99,-34.30 -6.79,-34.34 -6.58,-34.39 -6.37,-34.37 -6.16,-34.35 -5.96,-34.27 -5.77,-34.18 -5.61,-34.04 -5.46,-33.89 -5.35,-33.71 -5.25,-33.52 -5.21,-33.31 -5.18,-33.10 -5.21,-32.89 -5.24,-32.68 -5.34,-32.49 -5.43,-32.30 -5.59,-32.15 -5.74,-32.01 -5.93,-31.91 -6.12,-31.82 -6.33,-31.80 -6.54,-31.77 -6.75,-31.81 -6.96,-31.86 -7.14,-31.96 -7.33,-32.07 -7.47,-32.23 -7.61,-32.39 -7.69,-32.59 -7.77,-32.78 -7.78,-33.00 -7.80,-33.21 -7.74,-33.41 -7.69,-33.62 -7.57,-33.80 -7.46,-33.97 -7.29,-34.10 -7.12,-34.23 -6.92,-34.31 -6.72,-34.38 -6.51,-34.38 -6.30,-34.38 -6.09,-34.32 -5.89,-34.25 -5.72,-34.12 -5.55,-34.00 -5.43,-33.82 -5.31,-33.65 -5.25,-33.45 -5.19,-33.24 -5.20,-33.03 -5.20,-32.82 -5.28,-32.62 -5.36,-32.42 -5.49,-32.26 -5.63,-32.09 -5.81,-31.98 -5.99,-31.87 -5.99,-31.87 -5.99,-31.87 -8.01,-30.39 -10.03,-28.92 -12.10,-28.04 -14.17,-27.15 -15.88,-26.48 -17.59,-25.80 -18.98,-25.21 -20.36,-24.62 -21.86,-23.93 -23.36,-23.24 -25.11,-21.99 -26.86,-20.73 -27.03,-19.26 -27.19,-17.79 -26.12,-16.67 -25.04,-15.55 -24.05,-14.67 -23.06,-13.78 -21.93,-13.02 -20.81,-12.25 -19.76,-11.29 -18.71,-10.33 -17.94,-9.44 -17.17,-8.55 -16.22,-7.64 -15.27,-6.72 -14.41,-5.92 -13.55,-5.13 -12.66,-4.44 -11.76,-3.75 -10.45,-2.94 -9.15,-2.12 -7.53,-1.71 -5.91,-1.30 -4.36,-1.38 -2.80,-1.45 -1.59,-1.49 -0.38,-1.52 -0.19,-1.55 -0.00,-1.57 0.18,-1.55 0.37,-1.52 0.54,-1.46 0.72,-1.39 0.88,-1.28 1.04,-1.18 1.16,-1.04 1.29,-0.89 1.38,-0.73 1.47,-0.56 1.51,-0.37 1.56,-0.19 1.56,-0.00 1.56,0.18 1.51,0.36 1.47,0.55 1.38,0.72 1.29,0.89 1.17,1.03 1.04,1.17 0.89,1.28 0.73,1.39 0.55,1.45 0.38,1.52 0.38,1.52 L 0.38,1.52 Z"/></g><g stroke-linecap="round" transform="translate(347.3997195097046 80.56002804902954) rotate(0 37 37.25)"><path d="M7.37 2.43 C7.37 2.43, 7.37 2.43, 7.37 2.43 M7.37 2.43 C7.37 2.43, 7.37 2.43, 7.37 2.43 M3.83 12.61 C7.09 7.44, 10.91 4.69, 13.67 1.28 M3.83 12.61 C7.41 9.07, 10.17 5.02, 13.67 1.28 M3.57 19 C11.24 10.5, 16.93 3.38, 19.31 0.89 M3.57 19 C9.82 11.44, 14.85 6.22, 19.31 0.89 M3.31 25.4 C9.1 20.95, 10.81 16.35, 24.96 0.5 M3.31 25.4 C10.21 15.78, 18.62 6.53, 24.96 0.5 M3.05 31.8 C14.23 20.78, 22.59 10.25, 29.94 0.86 M3.05 31.8 C8.27 24.04, 15.1 17.38, 29.94 0.86 M3.44 37.44 C9.97 29.04, 19.56 18.88, 34.93 1.22 M3.44 37.44 C13.78 27.9, 21.34 16.15, 34.93 1.22 M3.18 43.84 C14.56 32.23, 20.41 21.16, 40.57 0.82 M3.18 43.84 C14.26 31.67, 26.29 17.99, 40.57 0.82 M2.92 50.24 C15.24 37.8, 22.89 22.8, 45.56 1.18 M2.92 50.24 C17.58 32.85, 32.66 17.37, 45.56 1.18 M2 57.39 C12.42 42.54, 25.4 29.3, 51.2 0.79 M2 57.39 C18.11 37.87, 35.35 19.88, 51.2 0.79 M3.05 62.28 C17.59 45.8, 32.14 31.42, 56.19 1.15 M3.05 62.28 C15.77 48.42, 27.07 33.58, 56.19 1.15 M3.45 67.92 C27.13 42.88, 46.93 14.54, 61.18 1.51 M3.45 67.92 C22.73 44.48, 41.41 21.44, 61.18 1.51 M6.46 70.55 C20.37 56.08, 32.49 37.75, 65.51 2.62 M6.46 70.55 C20.24 55.98, 34.15 38.95, 65.51 2.62 M8.83 73.92 C29.19 46.28, 51.2 20.58, 69.18 4.49 M8.83 73.92 C27.94 53.06, 45.6 31.38, 69.18 4.49 M13.16 75.04 C30.11 55.86, 46.14 36.03, 71.55 7.87 M13.16 75.04 C32.42 51.59, 53.71 27.26, 71.55 7.87 M16.83 76.91 C31.56 61.43, 47.98 42.26, 72.6 12.76 M16.83 76.91 C31 60.73, 47.05 44.9, 72.6 12.76 M22.48 76.51 C36.78 62.33, 48.97 46.5, 74.3 16.89 M22.48 76.51 C39.31 58.54, 56.52 38.77, 74.3 16.89 M27.46 76.87 C46.27 55.19, 67.39 32.96, 76.67 20.27 M27.46 76.87 C40.77 60.71, 56.58 44.73, 76.67 20.27 M33.11 76.48 C43.63 60.93, 55.52 49.45, 76.41 26.67 M33.11 76.48 C47.97 58.71, 64.19 38.76, 76.41 26.67 M38.09 76.84 C50.16 62.38, 58.26 50.74, 76.14 33.07 M38.09 76.84 C48.47 64.89, 56.74 54.64, 76.14 33.07 M43.08 77.2 C51 67.21, 56.39 58.5, 76.54 38.71 M43.08 77.2 C52.16 66.1, 63.09 54.32, 76.54 38.71 M48.72 76.81 C56.29 68.87, 63.53 60.3, 76.28 45.11 M48.72 76.81 C58.16 67.72, 66.52 57.46, 76.28 45.11 M55.68 74.9 C61.33 68.94, 66.08 59.95, 76.02 51.51 M55.68 74.9 C60.03 70.35, 64.65 65.13, 76.02 51.51 M62.63 73 C67.32 68.72, 73.14 60.72, 76.41 57.15 M62.63 73 C67.16 67.46, 72.31 61.36, 76.41 57.15" stroke="#fa5252" stroke-width="0.5" fill="none"/><path d="M18.5 0 M18.5 0 C32.92 -0.16, 45.96 -0.78, 55.5 0 M18.5 0 C31.3 0.36, 44.63 0.77, 55.5 0 M55.5 0 C69.59 0.66, 75.67 6.95, 74 18.5 M55.5 0 C67.5 0.66, 76.11 5.32, 74 18.5 M74 18.5 C74.33 29.57, 74.03 45.07, 74 56 M74 18.5 C73.72 27.59, 74.85 36.58, 74 56 M74 56 C72.77 66.72, 66.47 73.91, 55.5 74.5 M74 56 C75.32 69.74, 67.89 72.88, 55.5 74.5 M55.5 74.5 C46.7 72.72, 40.29 74.92, 18.5 74.5 M55.5 74.5 C44.16 75.28, 31.74 74.03, 18.5 74.5 M18.5 74.5 C4.61 74.43, 0.84 69.9, 0 56 M18.5 74.5 C4.82 73.51, 0.1 66.94, 0 56 M0 56 C-0.93 46.45, -0.88 34.18, 0 18.5 M0 56 C-0.92 41.28, 0.62 27.32, 0 18.5 M0 18.5 C-0.44 6.02, 6.87 1.01, 18.5 0 M0 18.5 C-2.07 8.31, 5.89 -0.21, 18.5 0" stroke="#c92a2a" stroke-width="1" fill="none"/></g><g stroke-linecap="round" transform="translate(10 85.6698457303375) rotate(0 33.5 33)"><path d="M6.13 2.68 C6.13 2.68, 6.13 2.68, 6.13 2.68 M6.13 2.68 C6.13 2.68, 6.13 2.68, 6.13 2.68 M3.9 11.34 C6.6 7.17, 11.08 3.13, 13.09 0.78 M3.9 11.34 C6.66 8.25, 10.07 3.94, 13.09 0.78 M3.64 17.74 C8.29 15.11, 11.27 8.59, 18.07 1.14 M3.64 17.74 C9.34 10.58, 16.16 5.12, 18.07 1.14 M3.38 24.14 C6.74 20.63, 12.48 16.44, 23.06 1.5 M3.38 24.14 C7.98 19.06, 14.82 12.54, 23.06 1.5 M3.12 30.54 C9.57 23.62, 15.15 14.45, 28.7 1.1 M3.12 30.54 C11.33 21.26, 20.36 11.19, 28.7 1.1 M2.86 36.93 C14.49 23.14, 24.65 12.29, 33.69 1.46 M2.86 36.93 C13.97 24.65, 25.21 10.59, 33.69 1.46 M2.6 43.33 C13.36 30.26, 27.71 15.58, 39.33 1.07 M2.6 43.33 C15.62 29.97, 26.54 14.59, 39.33 1.07 M1.68 50.48 C20.12 33.31, 33.46 10.82, 44.32 1.43 M1.68 50.48 C17.83 33.97, 32.48 16.09, 44.32 1.43 M2.73 55.37 C17.9 40.71, 30 23.42, 49.31 1.79 M2.73 55.37 C17.73 38.64, 32.3 21.89, 49.31 1.79 M3.78 60.26 C17.5 43.83, 32.02 25.8, 54.95 1.39 M3.78 60.26 C21.32 40.6, 37.11 22.01, 54.95 1.39 M6.14 63.64 C20.55 44.47, 34.91 26.91, 59.28 2.51 M6.14 63.64 C20.2 46.07, 33.72 30.71, 59.28 2.51 M9.16 66.26 C24.95 50.35, 39.24 34.38, 62.96 4.38 M9.16 66.26 C22.2 50.29, 34.36 35.34, 62.96 4.38 M14.15 66.62 C30.54 46.62, 47.91 26.06, 65.98 7 M14.15 66.62 C32.83 45.72, 50.26 26.15, 65.98 7 M19.13 66.98 C37.29 47.27, 57.13 22.91, 67.03 11.89 M19.13 66.98 C32.06 51.54, 46.87 34.39, 67.03 11.89 M24.78 66.59 C37.46 53.11, 47.81 42.7, 68.08 16.78 M24.78 66.59 C33.97 56.77, 44.24 46.13, 68.08 16.78 M29.76 66.95 C41.93 51.23, 56.81 38.12, 67.82 23.18 M29.76 66.95 C40.77 55.84, 50.65 44.03, 67.82 23.18 M34.75 67.31 C45.89 54.66, 56.77 43.13, 67.55 29.57 M34.75 67.31 C43.31 57.82, 53.22 46.5, 67.55 29.57 M40.39 66.92 C50.1 56.17, 61.23 43.53, 67.95 35.22 M40.39 66.92 C45.92 60.06, 52.84 51.29, 67.95 35.22 M45.38 67.28 C55.96 58.27, 62.61 47.4, 67.69 41.62 M45.38 67.28 C50.69 60.24, 56.01 55.62, 67.69 41.62 M51.02 66.88 C59.53 60.91, 62.54 51.71, 67.43 48.01 M51.02 66.88 C54.24 63.72, 57.01 58.77, 67.43 48.01 M57.98 64.98 C60.52 60.53, 66.47 55.1, 67.82 53.66 M57.98 64.98 C61.38 60.29, 64.39 56.74, 67.82 53.66" stroke="#fa5252" stroke-width="0.5" fill="none"/><path d="M16.5 0 M16.5 0 C30.21 0.6, 39.97 -0.97, 50.5 0 M16.5 0 C26.58 0.44, 38.67 1.11, 50.5 0 M50.5 0 C63.29 1.45, 65.21 5.59, 67 16.5 M50.5 0 C60.92 -1.26, 64.97 3.99, 67 16.5 M67 16.5 C65.9 26.22, 67.68 37.06, 67 49.5 M67 16.5 C67.72 25.14, 67.64 34.83, 67 49.5 M67 49.5 C67.59 60.55, 60.27 67.78, 50.5 66 M67 49.5 C67.05 59.54, 63.44 67.86, 50.5 66 M50.5 66 C39.21 65.22, 28.36 66.05, 16.5 66 M50.5 66 C37.16 66.04, 24.44 65.37, 16.5 66 M16.5 66 C6.47 66.97, -1.45 61.64, 0 49.5 M16.5 66 C4.94 64.64, -0.05 60.4, 0 49.5 M0 49.5 C-0.73 42.31, 1.18 34.86, 0 16.5 M0 49.5 C0.34 41.17, 0.3 30.33, 0 16.5 M0 16.5 C0.87 4.68, 4.51 0.42, 16.5 0 M0 16.5 C-1.98 3.21, 5.12 -1.98, 16.5 0" stroke="#c92a2a" stroke-width="1" fill="none"/></g></svg>